<svg width="50" height="50" viewBox="0 0 50 50" fill="none" xmlns="http://www.w3.org/2000/svg">
<path d="M0 25C0 38.8071 11.1929 50 25 50C38.8071 50 50 38.8071 50 25C50 11.1929 38.8071 0 25 0C11.1929 0 0 11.1929 0 25Z" fill="#28387C"/>
<path d="M35.7647 26.4875C38.5082 26.4936 42.2907 27.4676 42.5119 24.7331V24.7331C42.7124 22.2544 41.3088 20.1539 39.7383 19.0475C39.0092 18.5339 38.3907 17.1542 38.2327 16.2766V16.2766C38.0135 15.0342 36.0002 11.2754 28.2931 8.81091C28.0268 8.72573 27.6253 8.90016 27.806 9.11367V9.11367C27.9664 9.30322 27.9202 9.75691 27.685 9.67742C26.0024 9.10878 21.5789 7.96159 18.1819 10.18C17.9513 10.3306 17.7057 10.633 17.9772 10.6791V10.6791C18.288 10.732 18.5928 11.2198 18.286 11.2922C16.0711 11.8151 11.239 13.5101 9.89022 18.5061C9.83607 18.7067 10.0207 18.8873 10.2214 18.8337V18.8337C10.5195 18.7543 10.7856 19.2432 10.5748 19.4683C9.15271 20.9864 6.88385 24.2128 6.93443 29.3086C6.94057 29.9274 7.21424 30.7437 7.63595 30.2907V30.2907C8.13753 29.752 9.47593 29.9021 9.27941 30.6115C9.06976 31.3683 8.91674 32.2544 8.9158 33.23C8.91468 34.4053 10.4647 35.7193 10.9604 34.6536V34.6536C11.3922 33.7251 13.5343 33.1626 13.5017 34.186C13.4586 35.5427 13.5843 37.1669 14.1722 38.6363C14.5928 39.6876 15.9532 40.3296 16.0017 39.1983V39.1983C16.0524 38.0162 17.7902 37.3553 18.0946 38.4987C18.3071 39.2968 18.6798 40.1273 19.3054 40.8947C20.2905 42.1032 21.9748 41.0006 22.0411 39.4428C22.0915 38.2586 22.2205 36.8517 22.5005 35.3475C22.5435 35.1162 22.5519 34.8778 22.5094 34.6463C21.9919 31.8231 21.5276 36.5317 25.1904 39.3385C25.6986 39.7279 27.2966 40.1095 26.9869 39.5492V39.5492C26.6661 38.969 27.6685 37.0304 28.1769 37.4561C28.2448 37.5129 28.3148 37.5694 28.3871 37.6256C28.9158 38.0362 29.5907 37.2053 29.3087 36.5981C29.1841 36.3297 29.0654 36.0401 28.9585 35.7301C28.7307 35.0694 28.9335 33.7507 29.5009 34.1588V34.1588C30.0653 34.5646 31.6321 34.0858 31.2419 33.5106C30.7252 32.749 30.2958 31.7768 30.2857 30.6424C30.2603 27.7641 32.7819 26.7962 34.9724 26.5415C35.2352 26.5049 35.5005 26.4869 35.7647 26.4875Z" fill="#010101"/>
<path d="M28.3373 10.9802C28.581 11.0639 28.8007 10.7811 28.6502 10.572V10.572C28.5105 10.3781 28.6829 10.1252 28.912 10.1933C30.3618 10.6242 33.8136 11.837 35.5563 14.0352C37.7978 16.8625 35.4035 18.3908 33.9771 17.9832C32.5507 17.5757 30.4111 15.4361 28.7555 14.4682C27.2343 13.5888 25.5801 13.7296 24.7862 14.2698C24.7244 14.3118 24.6416 14.3915 24.7157 14.4018V14.4018C24.808 14.4145 24.9017 14.5745 24.8115 14.5976C24.736 14.617 24.6561 14.6433 24.5764 14.679C24.4562 14.7329 24.5213 14.8808 24.6528 14.8734C24.9678 14.8557 25.412 14.8738 25.8351 15.0404C26.0403 15.1213 26.3813 15.4979 26.174 15.4225V15.4225C25.9405 15.3376 25.5479 15.4628 25.7844 15.5389C26.1244 15.6484 26.494 15.8328 26.8863 16.123C26.9089 16.1397 26.9265 16.1634 26.9358 16.1899V16.1899C26.983 16.3247 26.8082 16.4588 26.6828 16.3904C26.5078 16.295 26.2865 16.1928 26.036 16.1183C25.6845 16.0137 25.6851 16.377 26.0198 16.5271C26.1783 16.5982 26.337 16.6835 26.4886 16.7861C27.3546 17.3719 27.4565 17.6012 27.6348 17.8559C27.7605 18.0355 28.2915 18.9623 29.3885 19.395C29.903 19.598 30.8282 19.8377 30.2877 19.9549V19.9549C29.7416 20.0734 28.6333 20.327 29.1839 20.4226C29.3329 20.4485 29.4955 20.4605 29.6725 20.4539C30.0892 20.4382 30.4428 20.3375 30.7326 20.2058C30.922 20.1198 31.4255 19.9856 31.2905 20.1439V20.1439C31.1584 20.2988 30.8993 20.8546 31.0911 20.7865C31.1371 20.7701 31.1832 20.7521 31.2292 20.7323C31.4018 20.6576 31.5855 20.788 31.4845 20.9468C31.3375 21.1781 31.0862 21.4384 30.6605 21.6027C30.4175 21.6965 30.1241 21.9477 30.3845 21.9411V21.9411C30.5915 21.9358 31.0353 22.0959 30.9206 22.2682C30.5858 22.7711 29.9472 23.5114 28.9847 23.7397C27.8164 24.017 25.8783 23.9093 24.3554 24.5897C24.1002 24.7037 24.2605 24.9936 24.5323 24.9289C24.6798 24.8937 24.8352 24.8616 24.9965 24.835C25.2303 24.7965 26.0366 25.0502 25.8309 25.1679V25.1679C25.6279 25.2841 24.8819 26.5323 25.0878 26.4212V26.4212C25.2887 26.3127 26.0722 26.5548 25.9183 26.7235C25.7917 26.8624 25.6704 27.025 25.5644 27.2144C25.4178 27.4767 25.8175 27.6894 26.0603 27.5123C26.3424 27.3064 26.6976 27.1008 27.1294 26.9453C27.3415 26.869 27.9526 26.7917 27.7925 26.9506V26.9506C27.6129 27.1288 28.0114 28.0606 28.2342 27.9407C28.4747 27.8113 28.7541 27.6872 29.0784 27.5753C29.3641 27.4767 29.6318 27.888 29.4965 28.1583C29.1086 28.9338 28.766 30.2214 29.3394 31.9513C29.4845 32.3889 29.6081 33.0646 29.2317 32.7983V32.7983C28.8215 32.508 27.7191 32.1288 27.6977 32.6308C27.6833 32.9713 27.6902 33.3509 27.7349 33.7569C27.8304 34.6259 27.0246 35.2305 26.6125 34.4595C26.5418 34.327 26.4739 34.1884 26.4099 34.0436C26.1012 33.3448 25.2719 33.1297 25.0619 33.8642C24.9507 34.2529 24.8808 34.7176 24.8997 35.2599C24.9426 36.4861 25.1541 38.3893 24.3868 37.4318V37.4318C23.662 36.5273 21.6777 34.7814 21.3586 35.8957C21.2361 36.3237 21.1319 36.791 21.0618 37.2922C20.8254 38.9811 19.2994 39.8419 18.7973 38.2122C18.6789 37.828 18.5789 37.4111 18.5043 36.9595C18.2764 35.5811 18.0456 33.8481 17.0696 34.8479V34.8479C15.9681 35.9764 14.1758 37.9143 13.9372 36.3554C13.8063 35.4999 13.7567 34.4576 13.8512 33.1951C13.9372 32.0445 14.0824 30.5192 13.1273 31.1664V31.1664C11.9137 31.9886 9.20191 33.067 9.43398 31.6196C9.56829 30.7819 9.82442 29.8627 10.2605 28.8828C10.5781 28.1692 10.7842 27.1346 10.0665 27.4427V27.4427C9.28225 27.7794 7.40595 27.844 7.54575 27.0021C7.87621 25.0121 8.85928 22.2079 11.6075 19.6444C11.9664 19.3096 12.3819 18.7214 11.8914 18.7415V18.7415C11.3204 18.7649 10.0362 18.0478 10.3836 17.594C11.7401 15.822 14.1495 13.3173 17.5389 12.214C18.1031 12.0304 18.1525 11.1586 17.5592 11.154V11.154C17.4841 11.1534 17.4782 11.1378 17.545 11.1035C18.2203 10.7563 22.2999 8.90431 28.3373 10.9802Z" fill="white"/>
<path d="M32.0032 24.5568C30.9283 24.6331 31.1798 23.3261 31.6107 22.3385V22.3385C32.2221 20.9375 33.0117 18.3649 35.1258 17.9829C36.4874 17.7368 37.4791 17.9979 38.0127 18.2149C38.179 18.2825 38.38 18.4509 38.2059 18.4947V18.4947C37.9972 18.5471 37.8752 18.8601 38.0903 18.8534C38.452 18.8419 38.8896 18.8961 39.354 19.1036C40.057 19.4177 41.164 20.8649 41.4579 22.6457C41.742 24.3681 39.5332 23.8228 37.8003 23.612V23.612C35.9154 23.4082 34.5145 24.3507 32.2985 24.529C32.1985 24.5407 32.1 24.55 32.0032 24.5568Z" fill="#F3B51B"/>
<path d="M36.6655 24.654C37.0094 24.6328 37.3764 23.9669 37.036 24.0196V24.0196C36.3939 24.1205 35.7518 24.271 35.1169 24.4162C34.3643 24.5884 34.3634 24.9567 35.1256 24.8347V24.8347C35.6995 24.7438 36.2099 24.6821 36.6655 24.654Z" fill="#F09B29"/>
<path d="M27.9989 13.8618C27.8634 13.8227 27.6821 13.6963 27.5739 13.6058V13.6058C26.9382 13.074 27.0071 12.1328 27.7947 12.3911C29.5796 12.9764 30.7903 14.2769 31 14.035V14.035C31.379 13.5928 31.3828 13.1289 31.721 13.6031C32.5445 14.758 33.2969 16.1667 34.4641 16.2V16.2C35.2502 16.2152 36.628 16.169 36.2129 16.8368C35.7589 17.5668 34.7848 17.8741 34.082 17.6774C32.7321 17.2953 30.6434 15.2067 29.0642 14.2897C28.7042 14.0991 28.3443 13.9614 27.9989 13.8618Z" fill="#C2C1C1"/>
<path d="M35.0177 19.7694C34.608 19.7972 34.2596 19.0037 34.6669 18.9511V18.9511C35.4565 18.8493 35.5074 19.5365 35.2018 19.7146C35.1548 19.7488 35.0928 19.7643 35.0177 19.7694Z" fill="#1F1919"/>
<path d="M39.0082 19.9972C38.5569 19.5419 38.7879 18.8539 39.3783 19.1037V19.1037C39.7261 19.2591 40.1729 19.6919 40.5712 20.3054C41.1664 21.2222 40.0665 21.1697 39.3411 20.3519C39.2327 20.2298 39.1215 20.1116 39.0082 19.9972Z" fill="#F8D67C"/>
<path d="M37.7547 18.1402C38.0269 18.2277 38.0702 18.5541 37.8072 18.6663V18.6663C37.6956 18.714 37.4817 18.7535 37.3808 18.6862C37.3693 18.6786 37.3579 18.671 37.3465 18.6634C37.0207 18.4472 37.1659 17.9766 37.5435 18.078C37.6181 18.098 37.6885 18.119 37.7547 18.1402Z" fill="#F8D67C"/>
<path d="M37.8257 23.6628C35.9409 23.4591 34.5399 24.4015 32.3239 24.5798C32.2127 24.5901 32.1035 24.5974 31.9964 24.6021C30.9094 24.65 31.1756 23.3356 31.6107 22.3384V22.3384V22.3384C31.8902 21.6972 32.7361 22.125 33.2135 22.6361C33.5641 23.0114 34.0635 23.0597 34.4381 22.7459C35.4569 21.9053 36.7305 21.1667 38.4625 22.6695C38.5486 22.7442 38.631 22.8212 38.7099 22.9001C38.9986 23.1888 38.2317 23.7067 37.8257 23.6628V23.6628Z" fill="#F09B29"/>
<path d="M31.1865 17.2747C31.2697 17.15 31.4433 17.075 31.5705 17.1545V17.1545C31.6545 17.207 31.6907 17.31 31.648 17.3994C31.5079 17.6923 31.1348 18.3008 30.4403 18.3394C29.5233 18.3903 28.9375 17.7535 28.9375 16.9385C28.9375 16.1234 29.5743 15.8687 29.7526 15.8687C29.9309 15.8687 30.2875 16.0724 29.9563 16.4035C29.6252 16.7347 29.4469 17.3715 29.9563 17.6516C30.3697 17.879 30.9339 17.6536 31.1865 17.2747Z" fill="#F09B29"/>
<path d="M30.082 16.48C30.082 16.6073 30.1839 16.7345 30.3113 16.7345C30.4386 16.7345 30.566 16.6327 30.566 16.48C30.566 16.3528 30.4641 16.251 30.3113 16.251C30.1839 16.251 30.082 16.3528 30.082 16.48Z" fill="white"/>
<path d="M28.8843 15.9809C29.0559 15.6652 29.2849 15.3641 29.0167 15.1251V15.1251C28.7822 14.9162 28.2857 14.9415 28.2277 15.2501C28.1701 15.5563 28.1349 15.9527 28.2138 16.3417C28.3069 16.8002 28.6019 16.7113 28.7574 16.27C28.7919 16.1722 28.8336 16.0742 28.8843 15.9809Z" fill="white"/>
<path d="M22.771 28.3245C22.771 28.3245 19.256 34.4121 20.7079 39.2516C20.7079 39.2516 19.6927 36.7461 19.9497 31.397C19.9805 30.7565 20.1501 29.8652 19.6042 30.2016V30.2016C18.8139 30.6884 16.2685 30.8817 16.3764 29.9598C16.6434 27.6789 17.421 24.9506 19.4012 22.7546C19.9908 22.1007 20.8083 23.0102 20.4037 23.7922C20.3726 23.8523 20.3419 23.9129 20.3115 23.9741C19.9561 24.6886 20.4555 25.4967 20.9502 24.8707V24.8707C21.4152 24.2823 22.4329 24.4358 22.2173 25.1541C22.1242 25.4643 22.0371 25.8031 21.9619 26.1697C21.8474 26.7274 22.2012 27.707 22.5298 27.2421V27.2421C22.8635 26.7699 23.8126 26.5296 23.4995 27.0157C23.2293 27.435 22.972 27.8824 22.771 28.3245Z" fill="#DEDEDC"/>
<path d="M27.1007 34.2207C26.6574 33.5181 27.1645 33.7067 27.4047 34.502V34.502C27.428 34.5792 27.4254 34.6413 27.3712 34.5815C27.3038 34.5071 27.2046 34.3852 27.1007 34.2207Z" fill="#DEDEDC"/>
<path d="M24.0921 29.8692C24.3652 29.3037 25.029 29.844 24.8469 30.445C24.6526 31.0859 24.5027 31.8284 24.4645 32.6502C24.447 33.0252 24.1603 33.0883 24.1467 32.7132C24.1432 32.6186 24.1415 32.522 24.1417 32.4235C24.1424 32.1252 23.8517 32.0509 23.8414 32.3491V32.3491C23.8414 32.3323 23.4677 31.1616 24.0921 29.8692Z" fill="#DEDEDC"/>
<path d="M20.2293 14.5087C20.5362 14.3447 21.0342 13.5716 20.6886 13.6123C19.3239 13.7729 17.5574 14.1482 15.7321 14.991C14.8258 15.4095 15.5269 16.6319 16.503 16.4228C18.0616 16.0888 19.8959 15.8635 21.9168 15.9248C22.5958 15.9455 22.8307 15.2858 22.1878 15.0664C21.8106 14.9377 21.3783 14.8261 20.892 14.7541C20.6073 14.7119 19.9755 14.6443 20.2293 14.5087V14.5087Z" fill="#DEDEDC"/>
<path d="M9.85789 25.9484C10.7582 24.6346 11.2494 22.7239 10.5062 24.1326C10.4321 24.2731 10.3606 24.4164 10.2919 24.5624C9.9161 25.3613 9.35881 26.6767 9.85789 25.9484V25.9484Z" fill="#DEDEDC"/>
<path d="M14.1204 25.4158C14.4114 24.8408 14.6078 23.3578 14.2724 23.9082C14.2267 23.9833 14.1815 24.06 14.137 24.1383C13.8204 24.6951 13.8311 25.9872 14.1204 25.4158V25.4158Z" fill="#DEDEDC"/>
</svg>
