<svg width="50" height="50" viewBox="0 0 50 50" fill="none" xmlns="http://www.w3.org/2000/svg">
<path d="M0 25C0 38.8071 11.1929 50 25 50C38.8071 50 50 38.8071 50 25C50 11.1929 38.8071 0 25 0C11.1929 0 0 11.1929 0 25Z" fill="#DCAB27"/>
<path d="M24.3219 8.61147C22.9974 8.63694 21.6729 8.71335 20.3738 8.89165C15.7635 9.5539 11.357 10.8275 7.23069 13.0435C6.67033 13.3491 6.54297 13.6802 6.54297 14.2406C6.72127 21.4999 8.93727 28.097 12.8853 34.1591C14.7192 36.961 16.8843 39.4572 19.3805 41.6732C20.8323 42.9722 22.4625 44.0674 24.2455 44.8825C24.7294 45.1118 25.1624 45.1372 25.6973 44.908C27.735 44.0165 29.4926 42.7429 31.1482 41.2656C34.6377 38.1327 37.3632 34.3884 39.5027 30.2111C39.6301 29.9564 39.7065 29.6507 39.9867 29.5234C41.1329 29.0903 41.8716 28.046 42.8904 27.4347C43.5272 27.0272 43.731 26.4159 43.4253 25.6772C43.2215 25.2187 43.1196 24.6838 42.8395 24.2763C42.1772 23.3084 42.3046 22.315 42.6102 21.2707C43.298 18.9273 43.5017 16.533 43.5017 14.0878C43.5017 13.6802 43.3998 13.451 42.9923 13.1963C41.1074 12.0501 39.0443 11.3114 36.9556 10.5982C35.1472 9.98693 33.2623 9.60484 31.3519 9.27371C29.0086 8.86617 26.6907 8.586 24.3219 8.61147Z" fill="#322728"/>
<path d="M41.9279 21.782C41.8892 22.324 41.2884 22.9227 41.561 23.3927C41.6478 23.5423 41.736 23.6928 41.826 23.8452C42.1826 24.4565 42.3864 25.1188 42.6666 25.7555C42.9213 26.3414 42.7175 26.7744 42.2336 27.0291C41.2147 27.564 40.5779 28.6338 39.3808 28.9649C39.0751 29.0413 39.0242 29.4489 38.8714 29.729C36.0186 35.2308 32.2998 39.9939 27.0018 43.4071C25.5754 44.324 24.4292 44.2986 23.0028 43.3816C19.5132 41.1401 16.7114 38.2364 14.3171 34.9252C13.6294 33.9827 12.8652 33.0403 12.3303 32.0215C11.3624 30.1621 10.3945 28.2517 9.65586 26.265C8.25494 22.4697 7.33797 18.5726 7.3125 14.4972C7.3125 13.9878 7.4908 13.7076 7.92382 13.4784C11.9992 11.3643 16.3293 10.1162 20.8632 9.60677C23.8433 9.27565 26.798 9.32659 29.8036 9.70866C34.0828 10.2436 38.1072 11.5171 41.9789 13.3765C42.5647 13.6567 42.8958 14.0133 42.8449 14.7519C42.7175 16.4585 42.5392 18.1396 42.2845 19.8462C42.1826 20.5084 41.9279 21.1198 41.9279 21.782V21.782ZM23.6141 14.7519C23.1556 14.8029 22.6971 14.8538 22.2641 14.8793C21.8566 14.9048 21.7547 15.134 21.8311 15.5161C22.0266 16.3761 22.417 17.1012 23.0486 17.6798C23.3375 17.9445 23.5225 17.8189 23.3849 17.4519V17.4519C23.1556 16.8916 22.6462 16.2548 22.9264 15.7199C23.1047 15.3633 23.8433 15.618 24.3273 15.5925V15.5925C24.4047 15.5925 24.4268 15.6974 24.3786 15.758C24.2473 15.9231 24.0605 16.1119 24.5311 16.1529C25.525 16.2393 26.2989 16.729 26.9618 17.3731C27.1997 17.6043 27.7013 17.8261 27.5367 18.1142V18.1142C27.4603 18.2415 27.282 18.1906 27.1546 18.1142C26.8744 17.9359 26.5942 17.8594 26.2631 17.9104C24.0726 18.2925 22.3405 19.4387 20.9396 21.1452C20.8377 21.2726 20.634 21.4254 20.8887 21.6037V21.6037C21.2678 21.8105 21.5256 22.0928 21.2974 22.4595C20.7771 23.2955 20.3265 24.1593 19.9863 25.1087C19.844 25.5058 20.2124 25.7842 20.6118 25.6486V25.6486C20.9297 25.5407 21.1091 25.892 20.9783 26.2012C20.7547 26.7298 20.563 27.263 20.4127 27.8132C20.1503 28.7735 21.2917 29.2302 22.0829 28.6259C22.3659 28.4097 22.6605 28.2167 22.971 28.0518C23.5201 27.7601 23.7747 28.2653 23.4358 28.7866V28.7866C23.3084 28.9904 23.2066 29.1432 23.5122 29.296C24.9386 30.0092 25.5244 31.3337 25.881 32.7601C26.0848 33.5497 26.5433 34.0846 27.282 34.3903V34.3903C27.3748 34.4367 27.4166 34.5672 27.3377 34.6345C27.3056 34.6619 27.266 34.6815 27.2253 34.7003C26.9991 34.8049 27.1525 35.0579 27.3843 35.1496C27.6134 35.2401 27.8425 35.3254 28.0716 35.3582C28.9376 35.5365 29.7527 35.4601 30.364 34.6959C30.9498 33.9827 30.8989 33.8299 30.0583 33.4478C29.5489 33.2186 29.0649 32.9384 28.6319 32.6073C28.0206 32.1488 27.5621 31.5884 27.3838 30.7988C27.3074 30.4932 27.5367 30.0092 27.2055 29.9073C26.8907 29.8105 26.5989 30.1511 26.352 30.3819C26.327 30.4053 26.3093 30.4174 26.2826 30.4389V30.4389C26.1839 30.5186 26.1384 30.3204 26.1908 30.2049C26.7003 29.0822 27.5338 28.2337 28.5301 27.4979C28.7897 27.3061 28.7294 26.998 28.4072 27.0171V27.0171C28.2086 27.0288 28.1104 26.8158 28.2812 26.7136C28.3401 26.6784 28.4029 26.652 28.4536 26.6216C29.7781 25.8065 31.2045 25.2461 32.7583 25.0169C33.395 24.915 33.9299 24.7367 34.4139 24.2782C34.7972 23.9091 35.2437 23.7299 35.7271 23.6788C36.2044 23.6284 37.1973 24.2107 37.1632 24.6894V24.6894C37.1587 24.7519 37.1168 24.7858 37.0635 24.8186C36.8512 24.9492 36.6583 24.8431 36.4655 24.7623C36.2056 24.6534 36.0892 24.9014 36.2767 25.1118V25.1118C36.4103 25.2618 36.2572 25.4874 36.0742 25.4045C35.9967 25.3694 35.9211 25.3201 35.8403 25.297C35.6875 25.2716 35.4073 25.1442 35.4073 25.4499C35.4073 25.8065 35.4073 26.2395 35.6365 26.4432C36.4006 27.1055 37.2157 27.7168 38.2346 27.9461C39.0497 28.1244 39.5081 27.5131 39.9921 27.0291C40.3487 26.6725 39.9666 26.3159 39.8138 25.9848C39.75 25.8571 39.6926 25.7294 39.6524 25.5994C39.5245 25.1864 39.9307 24.9658 40.2985 25.193V25.193C40.714 25.4496 41.0231 24.9489 40.7735 24.5292C40.5542 24.1604 40.298 23.8164 40.0252 23.4812C39.736 23.1258 39.5007 22.6903 39.2025 22.3424V22.3424C38.8459 21.8839 38.2601 21.5782 38.4893 20.8141C38.5574 20.6097 38.4319 20.5192 38.265 20.4893C38.1217 20.4636 37.9769 20.3507 37.8441 20.2911V20.2911C37.7427 20.2456 37.7298 20.1303 37.6659 20.0394V20.0394C37.6545 20.0231 37.6409 20.0182 37.6255 20.0056C36.4129 19.0166 35.3736 17.8793 34.0828 16.9934C32.7299 16.069 31.2373 15.6036 29.5696 15.5796C29.2552 15.5751 29.0682 15.9298 29.203 16.2138V16.2138C29.3124 16.4444 29.1544 16.6702 28.9715 16.4923C28.9686 16.4895 28.9658 16.4868 28.963 16.484C28.53 16.051 27.9951 15.7963 27.4857 15.5161C26.507 14.9909 25.4835 14.6224 24.3524 14.7668C24.1995 14.7864 24.0405 14.8262 23.8943 14.7774V14.7774C23.8179 14.752 23.716 14.7519 23.6141 14.7519ZM12.7379 27.7678C12.7888 27.8697 12.8652 27.9461 12.9162 28.0479C13.5867 29.8284 14.6141 31.3989 15.6172 33.0263C15.7537 33.2477 16.0697 33.214 15.9982 32.9639V32.9639C15.6416 31.996 15.5142 30.9771 15.6671 29.9583C15.8619 28.6186 15.5443 27.3488 15.2266 26.082C15.1979 25.9676 15.1964 25.8486 15.2109 25.7315C15.2214 25.6465 15.2282 25.5609 15.2327 25.4749C15.2683 24.7924 15.5938 24.8728 15.9181 25.4744V25.4744C15.9372 25.5098 15.9544 25.5452 15.9684 25.5829C16.615 27.3237 16.8667 29.1632 17.0935 31.0026C17.1444 31.3592 17.2718 31.7158 17.501 31.996C17.6029 32.1233 17.7557 32.3271 17.8831 32.0979C18.2142 31.563 18.6727 31.0281 18.7236 30.4677C18.829 29.6664 18.8821 28.865 19.0852 28.0781C19.151 27.8231 18.9665 27.591 18.7314 27.7098V27.7098C18.5133 27.82 18.3349 27.634 18.3664 27.3916C18.5353 26.0924 18.9049 24.8694 19.3983 23.6842C19.5148 23.4045 19.3782 23.0966 19.0776 23.1339V23.1339C18.7688 23.1722 18.6189 22.8701 18.7589 22.5922C19.1354 21.8455 19.6046 21.1752 20.142 20.5604C21.1386 19.4201 21.0428 17.5539 20.7104 16.0765V16.0765V16.0765C20.5843 15.5723 19.9183 15.344 19.4556 15.5804C19.2342 15.6935 19.0726 15.9232 18.9529 16.2293C18.851 16.5349 18.8 16.8915 18.7491 17.2227C18.5453 18.7255 18.6217 20.2537 18.0868 21.7056C17.9849 21.9858 17.985 22.4952 17.6538 22.4188C17.2718 22.3424 17.6283 21.9094 17.6283 21.6292V21.6292C17.6283 21.7356 17.5063 21.8268 17.5195 21.7212C17.521 21.7092 17.5234 21.6956 17.5265 21.6801C17.7048 20.432 17.4501 19.2604 17.0425 18.1142C16.8387 17.5029 16.8133 16.9425 17.0425 16.3312V16.3312C17.2012 15.8947 16.8525 15.4397 16.3881 15.4397H16.202C15.0303 15.4906 14.6737 16.3312 14.4444 17.2991C14.1897 18.3943 14.2661 19.4896 14.4444 20.5849C14.5973 21.5273 14.5718 22.4443 14.3426 23.3867C14.1234 24.3365 13.8111 25.3096 13.9622 26.3059C13.976 26.3971 13.9776 26.4874 13.9693 26.5792V26.5792C13.9008 27.3361 13.4933 27.5156 13.291 26.783C12.9703 25.6212 12.8419 24.3222 13.0181 23.4122C13.2473 22.3424 13.1964 21.3235 12.636 20.3302C12.3303 19.7698 12.2284 19.1585 12.2284 18.5217C12.203 17.7321 12.3558 16.9425 12.5086 16.1529C12.5851 15.7708 12.4832 15.618 12.0756 15.6689C11.9957 15.6804 11.9208 15.6867 11.8465 15.6924C11.6595 15.7069 11.464 15.6606 11.286 15.7199V15.7199C9.32474 16.1019 9.50304 15.7453 9.75775 17.7321C10.2417 21.2217 11.2096 24.5839 12.7379 27.7678ZM35.0415 30.4216C34.2068 30.4204 34.1761 29.4521 34.7755 28.8711C34.853 28.7959 34.9278 28.7171 34.9997 28.6338C35.4582 28.0734 35.4073 27.7423 34.796 27.4366C34.4394 27.2583 34.1337 26.9781 33.8535 26.698C33.5479 26.3923 33.2168 26.3159 32.8092 26.4178C32.1215 26.5706 31.5102 26.9017 30.8989 27.2838C30.746 27.3857 30.6187 27.4621 30.7715 27.6659C31.3064 28.3536 31.23 29.1687 31.179 29.9583C31.1536 30.1875 31.0772 30.5441 31.4338 30.5951C31.7904 30.6715 32.0451 31.2064 32.5036 30.7224C32.8347 30.3913 33.0639 30.4422 33.2422 31.0026C33.7516 32.6328 32.6054 33.6261 31.9432 34.8233C31.663 35.3327 31.3319 35.7403 30.8479 36.0459C30.1347 36.4789 29.3961 36.8101 28.53 36.6827C27.6895 36.5553 26.8489 36.3515 26.1357 35.8931C26.1104 35.8762 26.084 35.86 26.0566 35.8444C24.9044 35.1861 24.4685 33.6507 23.8943 32.4544V32.4544C23.716 32.0724 23.4103 31.9196 23.0028 31.996C20.6849 32.5309 18.9783 34.3139 18.9783 36.6317C18.9783 36.9119 19.0038 37.1412 19.2076 37.3704C20.8377 39.026 22.5443 40.5543 24.6075 41.7005C24.8877 41.8533 25.1169 41.8788 25.3971 41.7005C26.1357 41.2166 26.9254 40.7581 27.6131 40.2232C30.6951 37.8543 33.1149 34.8997 35.178 31.6648C35.4073 31.3083 35.662 31.0535 36.0695 30.9262V30.9262C36.6894 30.754 36.3588 30.2819 35.7218 30.3721C35.4948 30.4043 35.2683 30.422 35.0415 30.4216ZM36.9001 17.4292C38.2993 18.6434 40.2299 17.8904 40.4506 16.051V16.051C40.527 15.4652 40.3487 15.1595 39.7883 14.9048C33.013 11.9247 26.0084 10.8803 18.6981 12.2558C17.2833 12.5271 15.8979 12.8722 14.5308 13.3022C14.2146 13.4017 14.2681 13.8228 14.5973 13.7841V13.7841C15.9727 13.5548 17.3736 13.5548 18.7746 13.5293C20.0481 13.5039 21.3217 13.5294 22.5698 13.2492C23.8943 12.969 25.2697 12.969 26.5433 13.5039C27.4093 13.8605 28.3008 13.9878 29.1923 14.1152C31.4083 14.3954 33.5988 14.8029 35.4073 16.2038C35.924 16.5935 36.4153 17.0085 36.9001 17.4292ZM29.5428 30.6864C29.8718 30.8649 30.5989 30.9536 30.4913 30.5951V30.5951C30.3385 30.0092 30.5423 29.3724 30.2621 28.8121C30.1093 28.5064 29.9055 28.3026 29.5744 28.2262C29.2294 28.1248 29.3048 28.3305 29.2981 28.4827C29.2951 28.5532 29.2598 28.6168 29.1897 28.6239V28.6239C29.1147 28.6314 29.0265 28.6035 28.9513 28.5999C28.2989 28.5686 28.5163 28.9094 28.7338 29.296C28.8612 29.5253 28.9376 29.78 29.014 30.0347C29.1377 30.3438 29.3082 30.5592 29.5428 30.6864ZM31.8187 32.8226C32.2278 32.5988 31.7528 32.1207 31.2957 32.2129V32.2129C30.8276 32.3072 30.7245 32.8988 31.2001 32.9413C31.4302 32.9618 31.6357 32.9227 31.8187 32.8226ZM36.0695 28.863C35.9649 29.2117 36.048 29.5234 36.3944 29.4111C36.6125 29.3403 36.8168 29.2535 37.0108 29.1459C37.3892 28.936 37.3497 28.3622 36.9317 28.2504C36.5882 28.1585 36.2972 28.271 36.0695 28.863V28.863Z" fill="#010101"/>
<path d="M39.3644 24.8891C39.4994 24.7799 39.5969 24.9633 39.5917 25.1369C39.5834 25.4163 39.6828 25.6718 39.7962 25.9553C39.949 26.2864 40.3311 26.643 39.9745 26.9996C39.4905 27.4836 39.032 28.0949 38.217 27.9166C37.1981 27.7128 36.383 27.076 35.6189 26.4138C35.3642 26.1845 35.3642 25.7515 35.3642 25.4204C35.3642 25.1147 35.6444 25.2421 35.7972 25.2676C35.8574 25.2848 35.9146 25.3136 35.9719 25.3402C36.1839 25.439 36.3372 25.2037 36.1724 25.0379V25.0379C35.998 24.8624 36.1325 24.6218 36.3639 24.7094C36.5771 24.79 36.7881 24.934 37.023 24.7875C37.0744 24.7555 37.1147 24.7222 37.1199 24.6619V24.6619C37.1607 24.1927 36.15 23.6002 35.6816 23.6485C35.1976 23.6984 34.7562 23.8776 34.3708 24.2487C33.8868 24.7072 33.352 24.8855 32.7152 24.9874C31.1869 25.2166 29.735 25.8025 28.4105 26.5921C28.3669 26.6183 28.3172 26.6415 28.2687 26.6699C28.0873 26.7764 28.1807 27.001 28.3905 26.9859V26.9859C28.7008 26.9635 28.7617 27.2702 28.5121 27.4558C27.5349 28.1823 26.6904 29.0182 26.1737 30.1196C26.1034 30.2693 26.154 30.5043 26.271 30.3873V30.3873C26.5511 30.1581 26.8313 29.776 27.1624 29.8779C27.4936 29.9798 27.2643 30.4637 27.3407 30.7694C27.519 31.5335 27.9775 32.0939 28.5888 32.5778C29.0219 32.9089 29.5058 33.2146 30.0152 33.4184C30.8558 33.775 30.9067 33.9278 30.3209 34.6665C29.7096 35.4306 28.8945 35.4816 28.0285 35.3287C27.7923 35.2815 27.5658 35.1953 27.3491 35.1123C27.1153 35.0228 26.9719 34.7866 27.1948 34.6727C27.2318 34.6537 27.2674 34.6334 27.2966 34.6066C27.3729 34.5363 27.3317 34.4072 27.2389 34.3608V34.3608C26.5002 34.0551 26.0417 33.5457 25.8379 32.7307C25.4813 31.3043 24.8955 29.9797 23.4691 29.2666C23.1635 29.1137 23.2654 28.9609 23.3927 28.7571V28.7571C23.7273 28.2423 23.4729 27.7442 22.9306 28.0322C22.6122 28.2013 22.3105 28.3989 22.0209 28.6203C21.2381 29.2186 20.1072 28.7645 20.364 27.8133C20.5149 27.2543 20.7082 26.7116 20.9341 26.1755C21.0648 25.8653 20.8728 25.5108 20.5545 25.6202V25.6202C20.1568 25.7569 19.7999 25.4778 19.9401 25.0813C20.3224 24.0002 20.8427 23.0302 21.4668 22.0857C21.6005 21.8834 21.4679 21.6491 21.2254 21.6524V21.6524C21.0171 21.6552 20.9733 21.4239 21.1345 21.2919C21.2119 21.2286 21.2939 21.1699 21.3805 21.1158C23.9531 19.3837 26.8059 19.0016 29.8115 19.1799V19.1799C30.2312 19.2266 30.1481 19.6357 29.7704 19.8245C29.5888 19.9153 29.4072 20.0061 29.2256 20.0969C28.8445 20.2748 28.4126 20.3766 28.2841 20.8829C28.2835 20.8852 28.2823 20.8874 28.2806 20.8892V20.8892C28.2721 20.8976 28.2641 20.893 28.2725 20.8845C28.2742 20.8827 28.2759 20.8809 28.2774 20.8789C28.2834 20.8708 28.2921 20.8624 28.3021 20.8638C28.9737 20.9579 29.6609 20.8117 30.3873 20.8996C30.6435 20.9306 30.637 21.2265 30.4238 21.3718V21.3718C30.2522 21.4888 30.3754 21.6852 30.5802 21.7191C32.993 22.1191 35.3989 22.5201 37.6777 23.627C37.9186 23.744 37.8773 24.0216 37.6329 24.1312V24.1312C37.4775 24.2009 37.4888 24.3959 37.5974 24.527C37.7811 24.7488 37.9654 24.9839 38.1915 25.1912C38.6837 25.6096 39.0333 25.5285 39.2861 24.994C39.304 24.9563 39.332 24.9153 39.3644 24.8891V24.8891ZM24.6936 21.752C24.9203 21.8347 24.8611 22.1 24.6626 22.2372C24.1226 22.6103 23.625 23.0276 23.207 23.5335C23.033 23.7442 23.1494 23.9518 23.422 23.971C23.4273 23.9714 23.4325 23.9718 23.4378 23.9724C23.6261 23.9923 23.593 24.2413 23.4621 24.3782V24.3782C23.1388 24.7163 23.7369 25.094 24.1037 24.8036C24.4774 24.5077 24.8737 24.2333 25.2881 23.9754C25.5357 23.8213 25.5257 23.4807 25.2407 23.4188V23.4188C24.9697 23.3599 24.9022 23.0668 25.1093 22.8822C25.4857 22.5467 25.9048 22.2869 26.331 22.0499C26.6126 21.8933 26.6427 21.5588 26.3273 21.4927V21.4927C26.0518 21.435 26.0195 21.1225 26.2485 20.9587C26.3058 20.9176 26.3644 20.8789 26.424 20.8421C27.0322 20.4666 26.9105 20.0168 26.2415 20.2686C25.6629 20.4864 25.1039 20.7726 24.553 21.1156C24.2807 21.2852 24.3922 21.6421 24.6936 21.752V21.752Z" fill="#F4F2F1"/>
<path d="M34.7796 28.8963C34.1496 29.4517 34.1863 30.426 35.0261 30.4324C35.2789 30.4344 35.5313 30.4135 35.7844 30.375C36.4131 30.2795 36.7257 30.7256 36.1224 30.9267V30.9267C35.6894 31.054 35.4602 31.2833 35.231 31.6653C33.1678 34.9257 30.748 37.8803 27.666 40.2237C26.9528 40.7586 26.1887 41.2171 25.45 41.701C25.1698 41.8793 24.9406 41.8793 24.6604 41.701C22.6227 40.5548 20.8907 39.052 19.2605 37.3709C19.0567 37.1671 19.0312 36.9124 19.0312 36.6322C19.0312 34.3143 20.7633 32.5314 23.0557 31.9965C23.4632 31.8946 23.7434 32.0729 23.9472 32.4549V32.4549C24.5208 33.6499 24.9258 35.2091 26.0928 35.8376C26.126 35.8555 26.1581 35.8741 26.1887 35.8936C26.9019 36.352 27.7424 36.5558 28.583 36.6832C29.449 36.8105 30.1877 36.454 30.9008 36.0464C31.3848 35.7662 31.7159 35.3332 31.9961 34.8238C32.6584 33.6266 33.8046 32.6333 33.2951 31.0031C33.1168 30.4427 32.8621 30.3918 32.5565 30.7229C32.098 31.2069 31.8178 30.6465 31.4867 30.5956C31.1301 30.5191 31.2065 30.188 31.232 29.9588C31.2829 29.1692 31.3593 28.3541 30.8244 27.6664C30.6716 27.4626 30.7989 27.3862 30.9518 27.2843C31.5376 26.9022 32.1489 26.5711 32.8621 26.4183C33.2697 26.3419 33.6008 26.3928 33.9064 26.6984C34.1866 26.9786 34.4668 27.2333 34.8489 27.4371C35.4602 27.7428 35.4857 28.0739 35.0527 28.6343C34.9643 28.7268 34.8732 28.8138 34.7796 28.8963ZM29.192 37.8799C29.3656 37.7116 29.2577 37.3964 29.016 37.3964V37.3964C26.9528 37.3709 25.2208 36.5813 23.8708 35.0276C23.6161 34.7219 23.2085 34.4926 23.6415 33.9578C23.8198 33.754 23.5651 33.2191 23.3359 32.9134C23.1321 32.6333 22.8265 32.837 22.5972 32.9134C21.2218 33.321 19.9737 34.9002 19.8463 36.3266C19.8209 36.6322 19.8973 36.887 20.101 37.1162C21.451 38.5171 22.9538 39.7652 24.6095 40.8095C24.8132 40.9369 25.017 41.0642 25.2717 40.9114C26.642 40.0892 27.9304 39.1032 29.192 37.8799ZM31.8687 27.8447C32.4543 28.6058 33.3042 29.3274 33.9605 28.6263C34.0283 28.5538 34.0951 28.4801 34.1612 28.405C34.3649 28.2013 34.314 28.0229 34.0847 27.8701C33.881 27.7173 33.7027 27.5645 33.5244 27.4117C33.2442 27.1824 32.1744 27.2588 31.9197 27.5135C31.8178 27.6154 31.7923 27.7428 31.8687 27.8447V27.8447Z" fill="#F4F2F1"/>
<path d="M40.4493 16.0514C40.1923 17.8877 38.2699 18.6442 36.8742 17.4236C36.3954 17.005 35.9119 16.592 35.406 16.2042C33.5976 14.8033 31.3816 14.3958 29.1911 14.1156C28.2741 13.9882 27.4081 13.8864 26.5421 13.5043C25.2685 12.9694 23.8931 12.9694 22.5686 13.2496C21.295 13.5043 20.0469 13.4788 18.7733 13.5298C17.3724 13.5552 15.997 13.5552 14.5961 13.7845V13.7845C14.2619 13.8434 14.2043 13.3935 14.5272 13.2895C15.8951 12.849 17.2812 12.5083 18.6969 12.2562C26.0072 10.8807 33.0118 11.9251 39.7871 14.9052C40.3475 15.1599 40.5258 15.4656 40.4493 16.0514V16.0514ZM29.4458 12.7401C28.3997 12.5658 28.2722 13.2559 29.3256 13.3785C29.6924 13.4212 30.0556 13.4646 30.4137 13.5298C32.8844 13.9882 35.2277 14.7269 37.0617 16.5863C37.5711 17.0957 38.1315 17.5542 38.6918 18.0127C38.8701 18.1655 39.0484 18.4457 39.2777 18.3693C39.5324 18.2929 39.4305 17.9617 39.4814 17.7325C39.5579 17.2486 39.5579 16.7646 39.6597 16.3061C39.7362 15.8731 39.6343 15.6693 39.2012 15.491C36.0938 14.0901 32.808 13.1986 29.4458 12.7401V12.7401Z" fill="#F4F2F1"/>
<path d="M16.0363 25.849C15.9754 25.6743 16.0837 25.5033 16.2491 25.4206V25.4206C16.5293 25.2933 16.5548 24.7584 16.9114 24.8858V24.8858C17.2388 24.9793 17.4886 25.1562 17.5796 24.8281C17.7931 24.0581 17.9412 23.3185 18.2359 22.6188C18.8472 21.1669 19.7641 19.9698 21.0377 19.0274C21.4452 18.7472 21.5726 18.467 21.1396 18.0595C20.6166 17.5906 20.4767 16.9685 20.3491 16.3378C20.2648 15.9208 20.5524 15.6345 20.6556 16.0473V16.0473V16.0473C20.9896 17.5314 21.091 19.3834 20.0895 20.5285C19.5512 21.1441 19.0812 21.8152 18.7042 22.563C18.5641 22.8408 18.7141 23.143 19.0229 23.1047V23.1047C19.3235 23.0674 19.46 23.3753 19.3436 23.6549C18.8532 24.833 18.4851 26.0482 18.3148 27.3385C18.282 27.587 18.472 27.7683 18.6981 27.6602V27.6602C18.926 27.5512 19.1063 27.7818 19.0449 28.0269C18.8461 28.8209 18.7753 29.6297 18.6689 30.4385C18.5925 31.0243 18.134 31.5592 17.8283 32.0686C17.701 32.2979 17.5481 32.0941 17.4462 31.9668C17.217 31.6866 17.0642 31.33 17.0387 30.9734C16.8714 29.2526 16.6144 27.5094 16.0363 25.849Z" fill="#F4F2F1"/>
<path d="M13.9962 26.7761C13.9946 26.5551 14.1578 26.3829 14.3703 26.3219V26.3219C14.7719 26.2068 15.3201 26.3974 15.4158 26.8041C15.6577 27.8317 15.8353 28.8696 15.6777 29.9533C15.5249 30.9976 15.6777 31.9909 16.0088 32.9589V32.9589C16.0911 33.2055 15.7644 33.2427 15.6279 33.0214C14.6337 31.4083 13.6155 29.8512 12.9447 28.0901C12.9338 28.0614 12.9407 28.029 12.9624 28.0073V28.0073C12.9725 27.9973 12.985 27.9898 12.999 27.9881C13.0995 27.9755 13.2308 28.0291 13.207 27.8391C13.1944 27.7888 13.1756 27.7323 13.1414 27.6971C13.0958 27.6503 13.0603 27.5737 13.0331 27.5143V27.5143C13.0293 27.506 13.0268 27.5037 13.0232 27.4953C12.3915 26.0474 12.3158 24.5488 12.4174 22.9996C12.4683 22.3374 12.5702 21.5987 12.2136 21.0129C11.475 19.8157 11.5768 18.5421 11.7806 17.2431C11.857 16.7846 11.9334 16.3516 11.4749 15.995V15.995C11.2688 15.8346 11.7765 15.677 12.0362 15.648C12.0609 15.6452 12.0861 15.6421 12.1117 15.6384C12.5193 15.5875 12.6212 15.7403 12.5447 16.1224C12.3919 16.912 12.2391 17.6761 12.2646 18.4912C12.2646 19.128 12.3664 19.7393 12.6721 20.2997C13.2325 21.2676 13.2834 22.2864 13.0542 23.3817C12.8457 24.376 13.0108 25.8348 13.4033 27.0715C13.6046 27.7055 14.0281 27.5393 13.9988 26.8747C13.9973 26.8419 13.9965 26.809 13.9962 26.7761Z" fill="#F4F2F1"/>
<path d="M24.0542 14.7536C24.1079 14.7632 24.1493 14.8022 24.1849 14.8434C24.3515 15.0363 24.6426 14.9616 24.8501 15.0538C25.003 15.1302 25.2831 15.1047 25.2577 15.283C25.1812 15.9708 25.7926 15.9198 26.1237 16.2V16.2C26.7111 16.67 26.4057 16.7816 25.7282 16.4547C25.3638 16.2789 24.9654 16.1624 24.519 16.1236C24.0432 16.0822 24.2394 15.9064 24.3709 15.7327C24.4186 15.6697 24.3942 15.5632 24.3152 15.5632V15.5632C23.8313 15.5887 23.0926 15.334 22.9143 15.6906C22.6341 16.2509 23.1436 16.8622 23.3728 17.4226V17.4226C23.5322 17.7812 23.3249 17.9147 23.037 17.648C22.413 17.0698 22.0338 16.3456 21.819 15.4868C21.7426 15.1047 21.819 14.8755 22.2521 14.85C22.6589 14.8274 23.0657 14.7848 23.4548 14.7398C23.5478 14.7291 23.6343 14.7783 23.7245 14.8034C23.7453 14.8092 23.7661 14.8105 23.7869 14.8067C23.8758 14.7906 23.9654 14.7376 24.0542 14.7536V14.7536Z" fill="#F4F2F1"/>
<path d="M37.7223 19.9876C37.7345 20.0906 37.6114 20.1654 37.5168 20.1228C36.9348 19.8614 36.5169 19.3675 36.0576 18.977C34.8604 17.9836 33.7142 16.9138 32.2114 16.3535C31.651 16.1242 31.0652 16.0478 30.4539 15.9714C30.2597 15.952 30.0841 15.9511 29.9354 15.9884C29.6987 16.0478 29.24 16.0915 29.1375 15.87V15.87C29.0642 15.7117 29.1627 15.5033 29.3372 15.5004C31.1224 15.4707 32.6907 15.9349 34.1472 16.9138C35.4337 17.7967 36.4703 18.9543 37.6777 19.9167C37.7008 19.9351 37.7189 19.9582 37.7223 19.9876V19.9876Z" fill="#F4F2F1"/>
<path d="M17.6028 21.6253C17.6019 21.611 17.6004 21.5974 17.5968 21.5835C17.3197 20.4946 17.1411 19.3562 16.7362 18.2932C16.5069 17.6819 16.4814 17.0196 16.6088 16.3829C16.6272 16.2784 16.6338 16.1814 16.6278 16.0914C16.6134 15.8753 16.7743 15.4404 16.9909 15.4404V15.4404C17.1329 15.4404 17.2509 15.5798 17.21 15.7158C17.1463 15.9278 17.0875 16.1361 17.0163 16.3319C16.7871 16.9178 16.8126 17.5036 17.0163 18.1149C17.3984 19.2611 17.6786 20.4583 17.5003 21.6809C17.4975 21.6948 17.4953 21.7073 17.4938 21.7184C17.4793 21.8257 17.6093 21.7334 17.6028 21.6253V21.6253Z" fill="#F4F2F1"/>
<path d="M31.2455 32.2247C31.7019 32.1377 32.1814 32.6188 31.7684 32.8317C31.5855 32.926 31.3804 32.9606 31.151 32.9367C30.6831 32.8881 30.7835 32.3127 31.2455 32.2247V32.2247Z" fill="#F4F2F1"/>
<path d="M36.4206 29.3993C36.0971 29.5082 35.9809 29.1792 36.1077 28.8622V28.8622C36.3435 28.2492 36.6472 28.1503 37.0067 28.2602C37.3954 28.3789 37.425 28.9121 37.0709 29.1115C36.8654 29.2273 36.6502 29.322 36.4206 29.3993Z" fill="#F4F2F1"/>
<path d="M39.2089 22.3173C39.4071 22.5948 39.2314 22.7087 38.9618 22.4998C38.5379 22.1713 38.2044 21.7773 38.2919 21.0946V21.0946C38.3248 20.7323 38.6023 20.4226 38.5009 20.7721C38.4993 20.7777 38.4976 20.7833 38.4957 20.789C38.2664 21.5531 38.8523 21.8588 39.2089 22.3173V22.3173Z" fill="#F4F2F1"/>
<path d="M12.8229 27.8661C12.7904 27.816 12.8089 27.7421 12.8656 27.7232V27.7232C12.9177 27.7059 12.9714 27.7446 12.9714 27.7995C12.9714 27.8586 12.9714 27.9178 12.9714 27.9769C12.9714 27.9875 12.9672 27.9977 12.9597 28.0052V28.0052C12.9404 28.0245 12.9079 28.0192 12.8955 27.9949C12.8729 27.9504 12.8494 27.9068 12.8229 27.8661Z" fill="#F4F2F1"/>
<path d="M23.754 14.7476C23.811 14.7476 23.8387 14.8159 23.7833 14.8298C23.7649 14.8344 23.7464 14.8349 23.7279 14.8318C23.6682 14.8216 23.6934 14.7476 23.754 14.7476V14.7476Z" fill="#DE722A"/>
<path d="M24.6466 22.256C24.8573 22.1121 24.8973 21.8222 24.6532 21.7477V21.7477C24.3567 21.6572 24.2797 21.3198 24.5424 21.1552C25.1041 20.8031 25.6739 20.5121 26.264 20.2903C26.8953 20.0529 27.0134 20.4915 26.4457 20.8556C26.3963 20.8873 26.3475 20.9204 26.2996 20.9551C26.071 21.1204 26.1065 21.4261 26.3819 21.4875V21.4875C26.6896 21.5561 26.6595 21.8916 26.3832 22.0436C25.9471 22.2834 25.5287 22.546 25.1509 22.8867C24.9462 23.0712 25.0134 23.3629 25.2827 23.4212V23.4212C25.5679 23.4829 25.5762 23.823 25.3271 23.975C24.9134 24.2275 24.5178 24.4983 24.1447 24.7924C23.7859 25.0752 23.1975 24.7046 23.5138 24.3749V24.3749C23.6414 24.242 23.6749 23.9998 23.4921 23.9766C23.483 23.9754 23.4738 23.9746 23.4646 23.974C23.1919 23.9564 23.0735 23.7476 23.2436 23.5338C23.6484 23.0253 24.1231 22.6135 24.6466 22.256Z" fill="#322728"/>
<path d="M28.2794 20.8911V20.8911C28.2794 20.9236 28.2792 20.9297 28.2794 20.8972C28.2794 20.8952 28.2794 20.8932 28.2794 20.8911Z" fill="#DE722A"/>
<path d="M35.4524 19.5173C36.5889 20.1034 35.55 21.9427 34.4338 21.3189V21.3189C34.3376 21.2709 34.2313 21.2026 34.2483 21.1395C34.2862 20.9991 34.5685 21.0477 34.7127 21.0285V21.0285C34.8146 21.0149 34.7154 20.9576 34.6767 20.8623C34.5416 20.5297 34.9791 20.0724 34.4847 19.8926C34.4104 19.8667 34.3354 19.8421 34.2593 19.8184C33.7898 19.6721 33.8166 19.2113 34.3064 19.2558V19.2558C34.4338 19.2558 34.5611 19.2813 34.6885 19.2813C34.9825 19.3225 35.2337 19.4045 35.4524 19.5173Z" fill="#322728"/>
<path d="M34.3159 19.2604V19.2604C33.853 19.2163 33.8216 19.6584 34.2656 19.7966C34.3427 19.8205 34.4189 19.8455 34.4942 19.8717C35.0546 20.0754 34.3923 20.6358 34.7744 20.9669V20.9669C34.9099 21.1024 34.4726 20.8472 34.4511 20.6568C34.3931 20.1446 34.0089 19.9004 33.3989 19.7953V19.7953C32.861 19.7056 32.7954 19.0331 33.3396 18.9972C33.8031 18.9666 34.2614 18.9951 34.723 19.0594C34.7867 19.0683 34.8145 19.1439 34.7689 19.1894V19.1894C34.7573 19.201 34.7402 19.2108 34.724 19.2136C34.5821 19.2376 34.4604 19.2604 34.3159 19.2604Z" fill="#F4F2F1"/>
<path d="M37.4207 21.3239C37.6715 21.6373 37.0144 21.471 36.8158 21.1222C36.3493 20.3024 35.8628 19.4953 34.7732 19.3228C34.7417 19.3178 34.7348 19.2786 34.7442 19.2482V19.2482C34.7472 19.2385 34.7503 19.2312 34.7575 19.224C34.7769 19.2046 34.7927 19.1888 34.8083 19.1732C34.85 19.1315 34.9076 19.1086 34.9663 19.113C36.3181 19.2147 36.7232 20.452 37.4207 21.3239V21.3239Z" fill="#F4F2F1"/>
<path d="M24.3147 8.63637C26.6835 8.6109 29.0269 8.89108 31.3702 9.27315C33.2806 9.57881 35.14 9.9609 36.9739 10.5977C39.0625 11.3109 41.1257 12.0495 43.0106 13.1957C43.4181 13.4504 43.52 13.6797 43.52 14.0872C43.52 16.507 43.3162 18.9268 42.6285 21.2701C42.3228 22.3145 42.1955 23.3078 42.8577 24.2757C43.1379 24.6833 43.2398 25.2182 43.4436 25.6766C43.7492 26.4153 43.5455 27.0521 42.9087 27.4342C41.8898 28.0709 41.1512 29.0898 40.005 29.5228C39.6993 29.6501 39.6484 29.9558 39.521 30.2105C37.3814 34.3878 34.656 38.1066 31.1664 41.265C29.5363 42.7424 27.7533 44.0159 25.7156 44.9074C25.2062 45.1367 24.7477 45.1112 24.2637 44.8819C22.4808 44.0669 20.8506 42.9716 19.3987 41.6726C16.9026 39.4566 14.7375 36.9349 12.9036 34.1586C8.93006 28.1219 6.73954 21.4993 6.56124 14.24C6.53577 13.7051 6.68859 13.3486 7.24896 13.0429C11.3753 10.8269 15.7818 9.55334 20.3921 8.89108C21.6657 8.71279 22.9902 8.63637 24.3147 8.63637ZM41.5289 23.3821C41.2708 22.9067 41.8705 22.3456 41.8898 21.805V21.805C41.9153 21.1173 42.1445 20.506 42.2464 19.8692C42.5011 18.1881 42.6794 16.4815 42.8068 14.775C42.8577 14.0363 42.5266 13.6797 41.9408 13.3995C38.0691 11.5401 34.0447 10.2665 29.7655 9.73165C26.7854 9.34958 23.8053 9.29863 20.8251 9.62976C16.2913 10.1392 11.9611 11.4128 7.88574 13.5014C7.45273 13.7306 7.27444 14.0108 7.27444 14.5203C7.32538 18.5957 8.21687 22.4927 9.61779 26.288C10.3565 28.2747 11.3244 30.1596 12.2923 32.0444C12.8272 33.0633 13.5913 34.0057 14.279 34.9482C16.6988 38.2594 19.4751 41.1631 22.9647 43.4046C24.3911 44.3216 25.5373 44.3471 26.9637 43.4301C32.2872 40.0424 35.9805 35.2793 38.8333 29.752C38.9861 29.4718 39.037 29.0643 39.3427 28.9879C40.5144 28.6568 41.1512 27.5615 42.1955 27.0521C42.7049 26.7974 42.8832 26.3389 42.6285 25.7785C42.3483 25.1417 42.1445 24.4795 41.788 23.8682C41.7016 23.7027 41.6152 23.5412 41.5289 23.3821Z" fill="#E4A924"/>
<path d="M39.7838 24.8707C39.7035 24.8424 39.6273 24.8073 39.5434 24.822C39.4752 24.8338 39.4213 24.8842 39.3885 24.9661C39.1083 25.552 38.7772 25.6538 38.2678 25.2208C38.0337 25.0258 37.8445 24.786 37.6544 24.5471C37.5528 24.4196 37.5344 24.2391 37.6814 24.1686V24.1686C37.9312 24.0486 37.9836 23.7678 37.7339 23.6473C35.4581 22.5493 33.0559 22.168 30.647 21.7506C30.4435 21.7153 30.3216 21.5125 30.492 21.3959V21.3959C30.7092 21.2472 30.7122 20.9584 30.4508 20.9277C30.0644 20.8824 29.689 20.9026 29.3211 20.9168C28.8077 20.9366 28.5457 20.4471 29.012 20.2313C29.1081 20.1869 29.2066 20.1456 29.3019 20.1011C29.482 20.011 29.6621 19.921 29.8422 19.8309C30.2292 19.6374 30.3178 19.2319 29.8878 19.1841V19.1841C26.8822 18.9804 24.0294 19.3879 21.4568 21.1199C21.4219 21.1417 21.3878 21.1642 21.3544 21.1875C21.0793 21.3794 20.7356 21.3571 20.9728 21.1199V21.1199C22.3737 19.4134 24.0803 18.2672 26.2963 17.8851C26.6274 17.8342 26.9076 17.9106 27.1878 18.0889C27.3152 18.1653 27.5189 18.2162 27.5699 18.0889V18.0889C27.7249 17.8175 27.3851 17.5077 27.269 17.2175C27.0792 16.7431 26.5631 16.5193 26.1689 16.204C25.8378 15.9238 25.2265 15.9748 25.3029 15.287C25.3284 15.1342 25.0482 15.1342 24.8954 15.0578V15.0578C24.5483 14.9035 24.5916 14.7044 24.9714 14.7105C25.8842 14.7251 26.7298 15.0537 27.5444 15.4908C28.0538 15.771 28.6142 16.0257 29.0217 16.4587V16.4587C29.2435 16.6805 29.4337 16.3625 29.6578 16.1432C29.8393 15.9655 30.1168 15.9505 30.4481 16.0002C31.0594 16.0766 31.6453 16.153 32.2056 16.3823C33.7084 16.9427 34.8546 18.0125 36.0518 19.0058C36.4764 19.3496 36.8369 19.7736 37.3115 20.0485C37.5621 20.1936 37.959 20.2048 38.0385 20.4832V20.4832C38.115 20.6869 38.3442 20.8143 38.3187 21.1199C38.2278 21.984 38.827 22.3812 39.3915 22.8008C39.5262 22.9009 39.6464 23.019 39.7531 23.1486C39.9874 23.433 40.2188 23.7198 40.4341 24.019C40.915 24.6872 40.5601 25.1447 39.7838 24.8707V24.8707ZM34.9056 19.0822C34.3906 19.0021 33.8859 18.9683 33.3731 19.0062C32.8502 19.0447 32.908 19.7304 33.4282 19.7954V19.7954C33.9908 19.873 34.3466 20.0836 34.4504 20.5285C34.5173 20.8147 34.2097 21.1668 34.4726 21.2983V21.2983C35.3386 21.7822 36.2555 21.7313 37.198 21.6549C37.4782 21.6549 37.6819 21.553 37.4527 21.2728C36.7395 20.4068 36.332 19.1586 34.9056 19.0822Z" fill="#E4A924"/>
<path d="M14.9763 26.0721C14.4974 26.3604 13.9197 25.9525 13.9628 25.3952C14.0162 24.7062 14.2157 24.0286 14.3694 23.3625C14.5732 22.4201 14.6241 21.5031 14.4713 20.5607C14.293 19.4654 14.2166 18.3702 14.4713 17.2749C14.5967 16.6795 14.7895 16.1419 15.1921 15.7985C15.7516 15.3214 16.7896 15.6339 16.6618 16.358V16.358C16.5345 16.9947 16.5599 17.6825 16.7892 18.2683C17.1089 19.0581 17.2758 19.8896 17.4541 20.7114C17.5795 21.2898 17.1117 22.2066 17.6807 22.3692V22.3692C18.0118 22.4456 18.0118 21.9362 18.1137 21.656C18.6231 20.2041 18.5467 18.6758 18.7759 17.173C18.8269 16.8419 18.8524 16.5108 18.9797 16.1797V16.1797C19.3228 15.1933 20.2903 16.1619 20.6423 17.1451C20.7599 17.4736 20.932 17.7798 21.2212 18.039C21.6542 18.4211 21.5014 18.7013 21.1193 19.007C19.8457 19.9239 18.9542 21.1465 18.3175 22.5984C18.0234 23.2968 17.8619 24.0351 17.6513 24.8035C17.5649 25.1185 17.307 24.9551 16.993 24.8653V24.8653C16.6364 24.738 16.6109 25.2729 16.3307 25.4002V25.4002C16.1467 25.4922 15.9232 25.3811 15.8541 25.1874C15.8436 25.1579 15.8338 25.1282 15.8246 25.0983C15.66 24.5645 15.3089 24.5134 15.3053 25.0719C15.3041 25.2604 15.2999 25.4471 15.2781 25.6314C15.2586 25.7969 15.1703 25.9476 15.0305 26.0382C15.0125 26.0499 14.9945 26.0612 14.9763 26.0721Z" fill="#E4A924"/>
<path d="M11.3536 15.7316C11.4775 15.6856 11.4988 15.7812 11.4112 15.8801C11.3816 15.9135 11.3859 15.9559 11.4752 16.0254C11.9337 16.3565 11.8573 16.815 11.7809 17.2735C11.5771 18.5725 11.4752 19.8206 12.2139 21.0432C12.5705 21.6291 12.4431 22.3423 12.4176 23.03C12.3157 24.5837 12.3922 26.0866 13.0289 27.5384C13.0444 27.5694 13.0317 27.6098 13.0136 27.6481C12.9924 27.6929 12.9516 27.7255 12.9047 27.7411V27.7411C12.8156 27.7708 12.7182 27.7296 12.678 27.6447C11.1905 24.5048 10.2455 21.1928 9.7941 17.7574C9.54071 15.781 9.36294 16.0984 11.2921 15.7507C11.3116 15.7472 11.335 15.7385 11.3536 15.7316V15.7316Z" fill="#E4A924"/>
<path d="M30.5297 30.6185C30.6099 30.9795 29.888 30.8618 29.5614 30.6883C29.327 30.5637 29.1612 30.3537 29.0523 30.0582C28.9759 29.8035 28.8995 29.5488 28.7722 29.3195C28.5429 28.912 28.3137 28.5554 29.1033 28.6318C29.1797 28.6318 29.2816 28.6318 29.3071 28.6063C29.4089 28.479 29.1797 28.1224 29.6127 28.2497C29.9438 28.3516 30.1476 28.5554 30.3004 28.8356C30.5806 29.3959 30.3769 30.0327 30.5297 30.6185V30.6185Z" fill="#E4A924"/>
<path d="M28.9881 37.3938C29.2416 37.3938 29.3559 37.7212 29.175 37.8988C27.9222 39.129 26.6541 40.09 25.2438 40.9089C24.9891 41.0617 24.7853 40.9343 24.5816 40.807C22.9259 39.7626 21.4231 38.5146 20.0732 37.1136C19.8439 36.8844 19.793 36.6552 19.8185 36.324C19.9458 34.9231 21.2194 33.3184 22.5694 32.9109C22.7986 32.8345 23.0788 32.6307 23.308 32.9109C23.5627 33.2165 23.792 33.7514 23.6137 33.9552C23.1807 34.4901 23.5882 34.7448 23.8429 35.025C25.2184 36.5533 26.9249 37.3683 28.9881 37.3938V37.3938Z" fill="#E4A924"/>
<path d="M33.9716 28.6704C33.307 29.3449 32.4649 28.6339 31.9116 27.8655V27.8655C31.8352 27.7636 31.8607 27.6363 31.9626 27.5344C32.2173 27.2542 33.2871 27.1778 33.5672 27.4325C33.7455 27.5853 33.9493 27.7382 34.1276 27.891C34.3314 28.0438 34.3823 28.2221 34.204 28.4259C34.1281 28.5087 34.0507 28.5902 33.9716 28.6704Z" fill="#E4A924"/>
<path d="M29.3253 13.3606C28.2978 13.231 28.4156 12.5881 29.4403 12.738V12.738C32.828 13.222 36.0883 14.088 39.1958 15.4889C39.6288 15.6672 39.7307 15.8965 39.6543 16.304C39.5779 16.788 39.5524 17.2719 39.476 17.7304C39.4505 17.9596 39.5524 18.2908 39.2722 18.3672C39.043 18.4436 38.8647 18.1634 38.6864 18.0106C38.126 17.5521 37.5656 17.0936 37.0562 16.5842C35.2223 14.7248 32.8789 13.9861 30.4082 13.5276C30.0535 13.4554 29.6919 13.4068 29.3253 13.3606Z" fill="#E4A924"/>
<path d="M13.1654 27.9519C13.0795 28.0018 12.9727 27.8762 12.9727 27.7769V27.7769C12.9727 27.7112 13.0165 27.6439 13.081 27.6563C13.1616 27.6717 13.2019 27.7457 13.2019 27.8196C13.2117 27.8978 13.1952 27.9347 13.1654 27.9519Z" fill="#DE722A"/>
<path d="M34.6529 19.2248C34.7034 19.2163 34.7497 19.2849 34.6985 19.2849V19.2849C34.5711 19.2849 34.4438 19.2594 34.3164 19.2594C34.436 19.2594 34.54 19.2438 34.6529 19.2248Z" fill="#DE722A"/>
</svg>
