<svg width="50" height="50" viewBox="0 0 50 50" fill="none" xmlns="http://www.w3.org/2000/svg">
<path d="M0 25C0 38.8071 11.1929 50 25 50C38.8071 50 50 38.8071 50 25C50 11.1929 38.8071 0 25 0C11.1929 0 0 11.1929 0 25Z" fill="#EF3937"/>
<path d="M24.3515 16.4288C24.5621 15.8498 25.3245 15.8413 25.5001 16.4319C25.5074 16.4565 25.5151 16.4809 25.5232 16.5052C25.6251 16.7599 25.7015 16.8873 25.9817 16.9892C28.809 17.8552 31.0759 19.3835 31.9929 22.3891C32.1202 22.8476 32.4259 22.6183 32.6297 22.5419C33.1136 22.3127 33.5466 22.007 33.9797 21.7268C34.2344 21.5485 34.3872 21.3702 34.1579 21.0391C33.5976 20.1731 33.1136 19.2307 32.0438 18.8486C31.6872 18.7212 31.6872 18.441 31.7637 18.1354C31.9929 17.2184 32.757 16.8364 33.5212 16.4798C33.8268 16.3269 34.0051 16.4798 34.1579 16.7345C34.7438 17.6514 35.3806 18.5429 35.9664 19.4854C36.4758 20.275 37.1126 20.5297 37.9277 20.1222C39.2522 19.4599 40.5767 18.8231 41.7738 17.9826C42.3851 17.5496 42.8946 16.9637 43.6332 16.6835C44.4228 16.3779 45.187 16.4543 45.9511 16.7854C46.2058 16.8873 46.1804 17.0911 46.1804 17.2694C46.2568 18.492 45.4417 19.3071 44.4993 19.6382C42.8946 20.1986 41.5701 21.2174 40.0418 21.9051C39.1248 22.3382 38.5135 23.2551 38.8192 23.9428C39.1248 24.6306 39.5324 25.3183 40.0163 25.9041C40.3984 26.3626 40.5767 26.923 40.9842 27.356C41.0607 27.4324 41.0352 27.5598 40.9588 27.6616C40.6531 28.0946 39.0739 28.6041 38.5135 28.5022C37.7749 28.3493 37.9022 27.7126 37.7749 27.2541C37.5201 26.4136 37.0617 25.7258 36.5777 25.0126C36.3994 24.7324 36.2211 24.8343 36.0174 24.9617C35.024 25.5475 34.0561 26.1334 33.0627 26.6937C32.7316 26.8975 32.5533 27.1267 32.5533 27.5343C32.5278 28.3748 32.4768 29.2409 32.4259 30.0814C32.4004 30.4635 32.5023 30.7436 32.8334 30.9219C34.4381 31.788 36.0174 32.7049 37.673 33.4691C37.8513 33.5455 38.055 33.6474 38.1569 33.8002C39.1248 34.9973 40.2965 36.0162 41.3154 37.1624C41.4427 37.2897 41.621 37.4171 41.5446 37.5954C41.4682 37.7992 41.2389 37.6973 41.0606 37.6973C30.2099 37.6973 19.3592 37.6973 8.5339 37.6973V37.6973C8.30941 37.6973 8.14223 37.4603 8.26912 37.2751C8.38318 37.1086 8.53495 36.9782 8.68672 36.8567C9.45086 36.2454 10.0622 35.5068 10.6735 34.7681C11.6414 33.5964 12.9914 33.0361 14.2649 32.3738C15.2074 31.8644 16.1498 31.355 17.1177 30.8455C17.3724 30.7182 17.4743 30.5399 17.4488 30.2597C17.3979 29.2663 17.3469 28.2984 17.3215 27.305C17.3215 27.0249 17.1686 26.872 16.9649 26.7956C15.7932 26.3117 14.8253 25.5221 13.6791 24.9617C13.3734 24.8089 13.2206 24.8853 13.0933 25.1145C12.5838 25.8787 12.1763 26.6682 11.9725 27.5852C11.9216 27.8399 12.0744 28.222 11.7433 28.3493C11.3357 28.5276 10.9027 28.655 10.4442 28.5277C10.215 28.4513 9.98575 28.3748 9.75651 28.273C8.78861 27.789 8.76314 27.6616 9.32351 26.7447C9.80746 25.9296 10.2914 25.1145 10.7754 24.2994C11.1574 23.6372 11.1065 23.1787 10.5971 22.6183C10.2405 22.2363 9.80746 21.8797 9.32351 21.6759C8.38107 21.2684 7.56599 20.6571 6.69997 20.1222C6.57261 20.0457 6.41979 19.9948 6.26696 19.9693C4.89151 19.8929 4.22926 18.8741 3.64342 17.8298C3.31229 17.2694 3.7453 16.658 4.53491 16.5307C5.63017 16.3524 6.64903 16.5817 7.43864 17.4477C7.71882 17.7533 8.02447 18.0335 8.43201 18.2118C9.39992 18.6194 10.2659 19.2561 11.1829 19.7656C11.565 19.9693 11.947 20.0967 12.3546 20.1986C12.9149 20.3514 13.3989 20.1731 13.73 19.6637C14.3413 18.7212 15.0291 17.8043 15.5639 16.8109C15.7677 16.4034 16.0734 16.3269 16.43 16.5052C16.863 16.7345 17.3215 16.8873 17.6271 17.2948C18.2894 18.2118 18.2639 18.5684 17.296 19.1288C16.4809 19.6127 16.0988 20.3768 15.6149 21.1155C15.4621 21.3448 15.513 21.5231 15.7677 21.6759C16.3281 21.9816 16.863 22.3127 17.4234 22.6183C17.6271 22.7202 17.7545 22.6693 17.8564 22.3891C18.7733 19.4599 21.0148 17.9826 23.7657 17.0401C24.1223 16.9128 24.2496 16.7854 24.3515 16.4288V16.4288ZM39.4711 21.4049C39.4451 21.3813 39.4386 21.3487 39.4314 21.3143C39.4201 21.2603 39.3714 21.2331 39.3214 21.2146C39.2762 21.1979 39.233 21.1764 39.196 21.1457C38.9376 20.9319 38.6984 20.718 38.4371 20.5042C38.3862 20.4533 38.2588 20.4023 38.2079 20.5042V20.5042C38.1383 20.6434 38.2541 20.7978 38.366 20.9059C38.5448 21.0787 38.7518 21.2077 38.9962 21.2749C39.0459 21.2885 39.0891 21.3186 39.1275 21.3529C39.1614 21.3832 39.1984 21.4039 39.2368 21.412C39.2992 21.425 39.3681 21.464 39.43 21.4789V21.4789C39.4738 21.4895 39.5045 21.4351 39.4711 21.4049V21.4049ZM40.8158 20.4062C40.9354 20.4381 41.0387 20.5552 41.1625 20.5552V20.5552V20.5552C41.1994 20.5552 41.1803 20.4854 41.1506 20.4634C41.1287 20.4472 41.1068 20.4301 41.0849 20.4162C41.0694 20.4064 41.0551 20.3945 41.0443 20.3797C40.7907 20.0349 40.4407 19.7872 40.0418 19.6127C39.9399 19.5618 39.8635 19.4344 39.7616 19.5618C39.7458 19.5776 39.7343 19.5939 39.7264 19.6106C39.6501 19.7713 39.8663 19.9167 40.0049 20.0283C40.2379 20.2159 40.5181 20.327 40.8158 20.4062ZM29.9219 20.0601C29.841 20.0218 29.7491 19.9451 29.6673 19.9091V19.9091C29.6408 19.8974 29.6148 19.8802 29.5974 19.8571C28.6801 18.637 27.2929 18.2329 25.9307 17.7788C25.676 17.7024 25.5741 17.7788 25.5487 18.059C25.4977 18.4665 25.3958 18.8995 25.2685 19.3071C25.1666 19.6382 25.1157 20.0712 24.6827 20.1222V20.1222C24.2791 20.1696 24.6439 19.4195 24.7719 19.0339C24.7881 18.9851 24.8009 18.932 24.81 18.8741C24.9336 18.2357 25.0072 17.5806 25.0174 16.882C25.02 16.704 24.7998 16.6484 24.7859 16.826V16.826C24.7837 16.8541 24.7785 16.8753 24.7662 16.9006C24.4577 17.5371 23.9299 17.8597 23.2308 18.0845V18.0845C20.8905 18.8476 18.8846 20.8125 18.3998 23.2258C18.3877 23.2861 18.3764 23.3468 18.3658 23.4079C18.3403 23.5353 18.162 23.9173 18.5441 23.79C19.1898 23.5987 19.858 23.6095 20.4853 23.3585C20.5672 23.3258 20.6509 23.2964 20.7386 23.2868C20.7801 23.2822 20.8217 23.2785 20.8633 23.2738C20.9467 23.2645 21.0338 23.2746 21.1176 23.2699V23.2699C21.2293 23.2636 21.3281 23.1921 21.4394 23.1808C21.4658 23.1781 21.4921 23.1756 21.5185 23.1727C21.6071 23.163 21.6965 23.1608 21.7855 23.1655C21.9184 23.1725 22.0488 23.1612 22.1697 23.1103C22.2153 23.091 22.2566 23.0773 22.3061 23.0754V23.0754C22.579 23.0651 22.6032 23.2992 22.3421 23.3796C22.2554 23.4063 22.17 23.4326 22.0846 23.4589C20.8365 23.8664 19.6139 24.2994 18.4677 24.9362C18.1365 25.1145 17.8564 25.3183 17.8818 25.8022C18.0092 27.1522 18.0856 28.5022 18.1875 29.8522C18.162 30.8965 18.2639 31.9663 18.0856 32.9851C17.9073 34.004 18.2639 34.6153 19.028 35.0992C19.4912 35.4013 19.9385 35.7512 20.4328 36.0103C20.692 36.1462 20.9352 36.323 21.2043 36.4382V36.4382C21.488 36.5596 21.7768 36.6981 22.0811 36.7496C22.2537 36.7789 22.4311 36.7889 22.594 36.8567C22.9251 36.9841 23.027 36.8822 23.0015 36.5256C22.9092 34.5857 22.8168 32.6458 22.7244 30.7059C22.7055 30.309 22.73 29.8559 22.3648 29.6993V29.6993C21.7738 29.4367 21.1935 29.1846 20.6101 28.9295C19.9942 28.6602 19.4926 28.1004 19.6903 27.4579V27.4579V27.4579C19.8151 26.9586 20.2797 26.2796 20.7489 26.4911C20.9907 26.6001 21.2271 26.7063 21.4733 26.7701C22.0569 26.9161 22.5884 27.284 23.1798 27.3876C23.4185 27.4295 23.7643 27.828 23.7402 28.0692V28.0692C23.7147 28.9861 23.6638 29.9031 23.6129 30.8201C23.5874 31.5587 24.2242 32.5521 24.8609 32.7813V32.7813C24.9714 32.8366 25.1028 32.793 25.1997 32.7165C25.5886 32.4091 26.233 31.4375 26.2109 31.1512C26.1345 29.9286 26.2109 28.7059 25.9562 27.4833V27.4833C25.9061 27.2828 26.2576 27.4196 26.4621 27.4497C26.8379 27.505 27.1659 27.2227 27.51 27.1013C27.8303 26.9972 28.1455 26.8754 28.4613 26.7503C29.0658 26.5108 30.2484 27.5055 30.3627 28.1456V28.1456C30.4137 28.5022 30.159 28.6041 29.9043 28.6805C29.6477 28.7684 29.3976 28.8669 29.1513 28.9729C27.9715 29.4807 27.1478 30.5375 27.0005 31.8134V31.8134C26.8732 33.1379 26.8732 34.4879 26.8477 35.8379C26.7968 37.1369 26.8222 37.1624 28.0958 36.6275V36.6275C28.7243 36.418 29.3044 36.0681 29.877 35.7349C30.1206 35.5931 30.359 35.4406 30.592 35.2775C31.407 34.6662 31.9165 34.0549 31.7127 32.8578C31.5089 31.6352 31.6618 30.3361 31.6618 29.0626C31.7127 28.3494 31.7891 27.6362 31.8401 26.9484C31.942 25.1145 31.9419 25.1145 30.2608 24.3504C30.108 24.2994 29.9807 24.2485 29.8278 24.1976C29.0993 23.92 28.3708 23.6307 27.6423 23.3537C27.4776 23.291 27.5319 23.0358 27.7077 23.0476V23.0476C27.7444 23.05 27.7779 23.067 27.8062 23.0904C27.8192 23.1011 27.8325 23.1101 27.8466 23.116C27.9073 23.1414 27.9788 23.1062 28.0442 23.1137C28.1659 23.1276 28.2824 23.1415 28.4018 23.1555C28.5315 23.1706 28.6512 23.2681 28.7819 23.2692V23.2692C28.852 23.2699 28.921 23.263 28.9906 23.2714C29.0829 23.2825 29.1752 23.2876 29.2675 23.3061C29.8788 23.4589 30.5156 23.5608 31.1269 23.7645C31.5599 23.8919 31.5854 23.7645 31.5089 23.4079C31.2608 22.3408 30.8675 21.3463 30.1879 20.4713C30.1524 20.4256 30.1274 20.3729 30.1091 20.318C30.0712 20.205 30.0135 20.1034 29.9219 20.0601ZM38.9211 27.9164C39.454 27.8679 40.2656 27.7977 40.3411 27.2679C40.362 27.1214 40.2519 26.9361 39.9654 26.6937V26.6937C39.8174 26.5951 39.7922 26.3874 39.701 26.2347C39.2054 25.4049 38.7076 24.5861 38.1836 23.7303C38.0315 23.4818 37.6798 23.4505 37.4744 23.6572C37.4724 23.6593 37.4703 23.6613 37.4682 23.6634C37.403 23.729 37.3172 23.7699 37.2254 23.7805C37.1451 23.7898 37.0642 23.7996 36.9816 23.8113C36.8213 23.8338 36.7426 24.0119 36.8324 24.1466V24.1466C37.4947 25.2673 38.4626 26.2607 38.539 27.6616C38.5645 27.9164 38.7682 27.9164 38.9211 27.9164V27.9164ZM33.0321 17.3966C32.985 17.4468 32.9233 17.4892 32.868 17.5304V17.5304C32.543 17.7719 32.7436 18.3911 33.0506 18.6552C33.8483 19.3414 34.3051 20.3183 34.9426 21.1457C35.1508 21.4159 35.4623 21.3424 35.7084 21.1062V21.1062C35.7828 21.0348 35.8934 21.0188 35.9966 21.0216C36.2817 21.0294 36.3633 20.9705 36.1447 20.5552C35.5589 19.5108 34.7947 18.6194 34.1834 17.6005C33.6937 16.8169 33.6041 16.7866 33.0321 17.3966ZM9.88387 26.7956C9.43261 27.5246 11.0062 28.4041 11.3098 27.6023C11.3498 27.4965 11.3902 27.3644 11.4376 27.2031C11.4631 27.0758 11.5395 26.9739 11.5904 26.8465C12.0151 26.0184 12.4221 25.1726 12.9442 24.3533C13.0829 24.1356 12.9447 23.8324 12.6891 23.7967C12.6779 23.7951 12.6669 23.7936 12.6558 23.7921C12.524 23.7739 12.423 23.668 12.381 23.5417V23.5417C12.3284 23.3834 12.1336 23.3863 12.0278 23.5153C11.1922 24.5337 10.5929 25.7085 9.88387 26.7956V26.7956ZM13.9004 20.9964C13.9725 20.9888 14.0448 21.0012 14.1145 21.0209V21.0209C14.1473 21.0302 14.1796 21.0437 14.2131 21.0502C14.2326 21.0539 14.2514 21.057 14.2699 21.0598C14.383 21.0768 14.4809 21.1274 14.517 21.2359V21.2359C14.6027 21.4936 14.873 21.4468 15.0152 21.2155C15.0622 21.1388 15.1093 21.0635 15.1564 20.9882C15.6913 20.1221 16.1498 19.2052 17.0413 18.6194C17.2828 18.4611 17.4426 18.3329 17.5225 18.2114C17.9234 17.6021 16.5107 16.5401 16.0989 17.142V17.142C15.3092 18.3137 14.596 19.5363 13.781 20.6825C13.509 21.0382 13.7182 21.0158 13.9004 20.9964ZM32.5787 32.7813C32.6552 33.2908 32.4514 33.9276 32.9608 34.2587C34.994 35.5803 37.2047 36.5215 39.6435 36.8292C39.654 36.8306 39.6638 36.8353 39.6713 36.8428V36.8428C39.6802 36.8517 39.6923 36.8567 39.7049 36.8567H39.7134C39.7282 36.8567 39.7425 36.8616 39.7544 36.8702C39.8529 36.9415 39.9699 37.0021 40.0418 36.8822V36.8822C40.1347 36.7429 39.8611 36.6291 39.7587 36.4966C38.1573 34.4267 35.8975 33.3062 33.6081 32.1172C33.1223 31.8649 32.5423 32.2351 32.5787 32.7813V32.7813ZM17.4435 32.8516C17.447 32.8048 17.4546 32.7613 17.4651 32.7156V32.7156C17.5878 32.1809 16.9524 31.8283 16.4608 32.0719C14.1112 33.2364 11.8535 34.4331 10.1969 36.4683C10.0209 36.6845 10.1231 36.902 10.3807 36.7954V36.7954C10.4037 36.7858 10.4311 36.7781 10.4556 36.7736C11.6919 36.5461 12.9522 36.2916 14.1376 35.8124C15.1564 35.3794 16.0479 34.6662 17.0922 34.2842C17.296 34.2077 17.4234 34.0549 17.4234 33.8257C17.3997 33.4941 17.42 33.1626 17.4435 32.8516ZM16.2224 25.3293C16.6456 25.5805 17.5324 24.9271 17.0922 24.707V24.707C16.7214 24.5216 16.3506 24.3042 15.9574 24.2561C15.4551 24.1947 15.4405 24.8445 15.8693 25.1132C15.9851 25.1858 16.1024 25.2581 16.2224 25.3293ZM33.8381 24.2399C32.8161 24.3541 33.7953 25.2775 34.6674 24.7324V24.7324C34.7692 24.6815 34.8711 24.6051 34.8457 24.4777C34.8202 24.3504 34.6674 24.3504 34.5655 24.3249C34.3035 24.2416 34.0582 24.2153 33.8381 24.2399ZM16.3508 23.9267C16.868 24.3755 17.7866 23.739 17.2344 23.3341C17.1907 23.3022 17.1428 23.2715 17.0902 23.2421C16.5482 22.9378 15.8813 23.5193 16.3508 23.9267V23.9267ZM33.2559 24.2031C33.8867 23.7693 33.1301 23.187 32.4768 23.5862V23.5862C32.0948 23.79 32.2985 24.1721 32.375 24.4013C32.4768 24.707 32.7061 24.4777 32.9099 24.4013C33.0357 24.3407 33.1513 24.275 33.2559 24.2031ZM45.5691 16.9383C44.8325 16.8856 44.0602 16.6637 43.3949 16.9841C43.0776 17.1369 42.7919 17.3592 42.5125 17.6005C42.3852 17.7279 42.1814 17.9316 42.3597 18.1099C42.5125 18.2882 42.7163 18.0335 42.7927 17.9571C43.5823 17.193 44.4738 17.0147 45.4926 17.3458C45.62 17.3967 45.7983 17.5241 45.8492 17.2439C45.8747 17.0401 45.7219 16.9637 45.5691 16.9383V16.9383ZM6.26696 17.3203C6.79466 17.5425 7.20558 17.2428 6.67927 17.0173C6.53566 16.9558 6.37331 16.9048 6.19054 16.8618C5.52829 16.709 4.86604 16.7345 4.25473 17.0911C4.20379 17.1166 4.20379 17.2694 4.22926 17.3203V17.3203C4.32903 17.5199 4.61233 17.2709 4.82988 17.2215C5.30267 17.1141 5.76783 17.1747 6.26696 17.3203V17.3203ZM9.88387 19.6127C9.58082 19.8692 9.6997 20.2223 10 19.9626C10.0463 19.9226 10.0922 19.8821 10.1386 19.842C10.215 19.791 10.2659 19.6382 10.1641 19.5363C10.0367 19.4344 9.96028 19.5363 9.88387 19.6127V19.6127ZM11.4376 20.4787C11.0967 20.7672 11.2432 21.0477 11.6466 20.8562C11.6618 20.849 11.677 20.842 11.6923 20.8353C11.8197 20.7844 11.9216 20.6316 11.8452 20.5042C11.7433 20.3514 11.565 20.3768 11.4376 20.4787V20.4787ZM9.04332 19.1542C8.68859 19.3998 8.82496 19.7256 9.20466 19.5207C9.22714 19.5086 9.24975 19.4968 9.27256 19.4854C9.39992 19.4344 9.55275 19.2816 9.45086 19.1033C9.32351 18.925 9.14521 19.0778 9.04332 19.1542V19.1542ZM40.8569 19.548C41.0586 19.7383 41.3063 19.472 41.0843 19.3058V19.3058C40.9001 19.168 40.6495 19.3278 40.8059 19.4965C40.8225 19.5144 40.8395 19.5316 40.8569 19.548ZM8.25519 19.1301C8.42652 18.9527 8.1637 18.7939 7.96981 18.9464V18.9464C7.75898 19.1122 7.9139 19.3915 8.13222 19.2357C8.17715 19.2036 8.21807 19.1685 8.25519 19.1301ZM41.9808 18.9363C41.769 18.7669 41.4755 18.94 41.6643 19.1345C41.7059 19.1774 41.7532 19.2156 41.8059 19.2493C42.0435 19.4011 42.2009 19.1125 41.9808 18.9363V18.9363ZM10.6501 20.5285C10.8278 20.3449 10.5604 20.1757 10.358 20.3317V20.3317C10.1461 20.495 10.2796 20.7907 10.5051 20.6467C10.5583 20.6127 10.6066 20.5734 10.6501 20.5285ZM39.2714 20.5217C39.4874 20.7029 39.7077 20.4464 39.4884 20.2692V20.2692C39.2874 20.1068 39.0364 20.3043 39.2253 20.4808C39.2404 20.4949 39.2558 20.5086 39.2714 20.5217Z" fill="#280004"/>
<path d="M29.0711 35.752C29.0671 36.0034 28.9687 36.2558 28.7437 36.3679C28.5989 36.44 28.4452 36.4884 28.2943 36.5364C28.2184 36.5605 28.0688 36.5795 28.0688 36.4999V36.4999C28.1961 34.9716 27.9669 33.4179 28.2216 31.8641C28.3235 31.2783 28.298 30.7179 27.7376 30.3104V30.3104C27.419 30.0979 27.659 29.6921 27.9994 29.5165C28.6449 29.1836 29.3092 28.8677 30.0046 28.6293V28.6293C30.4459 28.4527 30.7242 27.9054 30.9402 27.482C31.2926 26.7909 31.5271 25.7619 31.3291 25.4199C31.2272 25.2416 31.0744 25.2926 30.9215 25.3435C29.4697 25.9039 28.0178 26.5152 26.515 26.9991C26.4934 27.0063 26.4729 27.0135 26.4535 27.021C26.2712 27.0912 26.0091 27.2172 26.0565 27.4067V27.4067C26.3112 28.6038 26.2348 29.8519 26.3112 31.0745C26.3332 31.3813 25.6766 32.3288 25.298 32.6364C25.2021 32.7143 25.0718 32.7599 24.9613 32.7047V32.7047C24.299 32.4754 23.6622 31.4566 23.7132 30.7434C23.7641 29.8264 23.7896 28.9095 23.8405 27.9925C23.8405 27.7504 23.8635 27.5314 23.997 27.3135C24.0108 27.291 24.0268 27.2601 24.0127 27.2379V27.2379C24.004 27.2242 23.9856 27.2254 23.9705 27.2197C22.2972 26.5856 20.649 25.9264 18.9755 25.2926C18.7208 25.1907 18.6699 25.3945 18.6699 25.5982C18.6683 25.6657 18.6674 25.7331 18.6673 25.8001C18.6652 27.7781 20.6576 28.8448 22.4651 29.6481V29.6481V29.6481C22.8128 29.7971 22.5755 30.1178 22.2703 30.3413C21.8648 30.6382 21.6589 31.0533 21.7519 31.6858C21.9557 33.0613 21.9047 34.4367 21.9047 35.8122C21.9047 35.8965 21.9185 35.9876 21.9233 36.0781C21.9392 36.3813 21.5831 36.4761 21.3037 36.3572V36.3572C21.0494 36.249 20.9395 35.9619 20.9422 35.6855C20.9572 34.1447 20.9259 32.5862 20.8095 31.049C20.784 30.8707 20.8095 30.6925 20.6057 30.616V30.616C19.2578 30.0769 18.2198 28.7932 18.1135 27.3454C18.0745 26.814 18.0323 26.2825 17.9821 25.751C17.9312 25.2671 18.2369 25.0633 18.568 24.885C19.7142 24.2482 20.9368 23.7897 22.1849 23.4077C22.2581 23.3852 22.3312 23.3627 22.4052 23.3399C22.6782 23.2558 22.6566 23.0196 22.371 23.0253V23.0253C22.3467 23.0258 22.3258 23.0225 22.3021 23.017C22.1444 22.9802 21.9875 22.9641 21.8434 23.0396C21.7789 23.0733 21.7145 23.1103 21.6422 23.1189C21.6219 23.1213 21.6016 23.1234 21.5813 23.1254C21.4521 23.1385 21.3204 23.0058 21.1969 23.046V23.046C21.0794 23.0842 21.0132 23.2179 20.8903 23.2302C20.8868 23.2306 20.8834 23.2309 20.88 23.2313C20.771 23.2423 20.6626 23.2033 20.5608 23.1628C20.3409 23.0754 20.0998 23.169 19.8925 23.1275C19.7397 23.102 19.5359 23.3313 19.4085 23.102C19.3067 22.9237 19.434 22.7454 19.485 22.5417V22.5417C20.0945 20.8653 20.7365 19.0495 22.3799 18.356C22.6898 18.2252 23.0095 18.1127 23.3311 18.0078C23.889 17.8218 24.363 17.5856 24.6853 17.1359C24.8044 16.9698 25.0839 16.9783 24.9613 17.1418V17.1418C24.6047 17.7531 24.5792 18.5172 24.0952 19.0521V19.0521C23.883 19.2644 24.1408 19.5432 24.3078 19.7926C24.4114 19.9472 24.5419 20.0626 24.783 20.02C25.216 19.9691 25.2669 19.536 25.3688 19.2049C25.4962 18.7974 25.5726 18.3899 25.649 17.9569C25.6999 17.7021 25.7764 17.6002 26.0311 17.6766C27.3973 18.1321 28.7887 18.5372 29.7059 19.7658C29.7182 19.7823 29.7319 19.7979 29.7455 19.8133C29.7464 19.8144 29.7473 19.8155 29.7483 19.8166C29.8167 19.8962 29.8282 20.0092 29.8419 20.1133V20.1133C29.8455 20.1409 29.8607 20.1583 29.8777 20.1804C30.3639 20.8122 30.442 21.612 30.6923 22.3379C30.8706 22.8219 30.7942 23.102 30.1829 23.0511C29.9789 23.0307 29.7585 22.9776 29.5611 23.0751C29.4621 23.1239 29.3535 23.1656 29.2437 23.1546V23.1546C29.1167 23.1418 29.0501 23.0078 28.9361 22.9506C28.9314 22.9482 28.9266 22.9463 28.9217 22.9449C28.7979 22.9102 28.6773 23.0424 28.5497 23.0275C28.4335 23.0139 28.32 23.0004 28.2016 22.9868C28.1306 22.9787 28.0607 22.9596 27.9909 22.944C27.9737 22.9401 27.9551 22.9357 27.9346 22.9297C27.9222 22.9259 27.9094 22.9233 27.8964 22.9224V22.9224C27.7187 22.9106 27.6636 23.1723 27.83 23.2356C28.5504 23.5097 29.259 23.7956 29.9791 24.07C30.1319 24.1209 30.2848 24.1718 30.4121 24.2228C32.0932 24.9869 32.1187 24.9869 31.9913 26.8208C31.9404 27.534 31.8894 28.2472 31.813 28.935C31.7621 29.6481 31.2272 29.9029 30.6668 30.1066C30.3612 30.234 30.0555 30.3613 29.7244 30.4378C29.4187 30.5396 29.2914 30.6924 29.2659 31.049C29.0078 32.6916 29.0955 34.226 29.0711 35.752Z" fill="#ECE9E9"/>
<path d="M30.6403 35.2526C29.947 35.7634 29.0647 35.1872 29.0579 34.3261C29.0495 33.2664 29.0496 32.2039 29.1629 31.1517C29.2139 30.7951 29.3158 30.6423 29.6214 30.5404C29.9271 30.4385 30.2582 30.3112 30.5639 30.2093C31.1242 30.0055 31.6591 29.7508 31.7101 29.0376C31.7101 30.3112 31.5572 31.5847 31.761 32.8328C31.9648 34.0299 31.4554 34.6412 30.6403 35.2526V35.2526Z" fill="#BFC0C7"/>
<path d="M18.2149 32.2876C18.3121 31.0007 19.3565 30.1624 20.5548 30.6417V30.6417C20.784 30.7181 20.7586 30.8965 20.7586 31.0748C20.8326 32.0527 20.8723 33.0392 20.8874 34.0243C20.9032 35.0528 19.939 35.6101 19.0775 35.0483V35.0483C18.3133 34.5643 17.9567 33.953 18.135 32.9341C18.1731 32.7218 18.1984 32.506 18.2149 32.2876Z" fill="#BFC0C7"/>
<path d="M10.4563 36.6933C10.4127 36.7488 10.3582 36.7953 10.2946 36.8261V36.8261C10.0749 36.9322 9.97289 36.7126 10.125 36.5218C11.828 34.3844 14.1939 33.185 16.6135 31.9861C17.0201 31.7846 17.5333 32.0802 17.4724 32.5299V32.5299C17.4493 32.7003 17.3373 32.8287 17.1865 32.9114C15.5077 33.8319 13.8311 34.7111 12.2009 35.66C11.6186 35.9996 10.8977 36.1313 10.4563 36.6933Z" fill="#ECE9E9"/>
<path d="M39.7523 36.8397C39.7402 36.8506 39.7247 36.8572 39.7084 36.8572V36.8572C39.6921 36.8572 39.6764 36.8507 39.6649 36.8392L39.6574 36.8317C39.0206 36.2204 38.2056 35.9147 37.4669 35.5072C35.9215 34.6379 34.3761 33.7915 32.8307 32.9246C32.672 32.8356 32.5708 32.6979 32.5586 32.5164V32.5164C32.5305 32.0969 32.9744 31.7884 33.3474 31.9825C35.754 33.2345 38.1539 34.3553 39.8182 36.5767C39.8728 36.6496 39.8619 36.7486 39.7914 36.8063C39.7778 36.8174 39.7646 36.8285 39.7523 36.8397Z" fill="#ECE9E9"/>
<path d="M22.3799 36.7764C22.0142 36.6963 21.8312 36.2383 21.8312 35.8639V35.8639C21.8312 34.4885 21.8821 33.113 21.6783 31.7376V31.7376C21.5294 30.6948 22.7741 31.1876 22.8242 32.2398C22.8923 33.6686 22.9603 35.0974 23.0283 36.5262C23.0538 36.8828 22.9519 36.9847 22.6208 36.8573C22.5431 36.8185 22.4621 36.7944 22.3799 36.7764Z" fill="#BFC0C7"/>
<path d="M12.5132 36.3412C11.7323 36.5452 11.5019 36.0413 12.1991 35.6346V35.6346C13.6177 34.821 15.0534 34.0415 16.4782 33.2683C16.8858 33.047 17.3773 33.3636 17.3443 33.8261V33.8261C17.3443 34.0554 17.2169 34.2082 17.0131 34.2846C15.9688 34.6667 15.1028 35.3799 14.0585 35.8129C13.5605 36.0342 13.0433 36.2026 12.5132 36.3412Z" fill="#BFC0C7"/>
<path d="M27.2638 30.4053C27.2898 30.2864 27.6172 30.2582 27.7107 30.3361V30.3361C28.2965 30.7182 28.2965 31.2785 28.1947 31.8898C27.9654 33.4181 28.1947 34.9718 28.0418 36.5256V36.5256C28.0418 36.5774 28.0704 36.6334 28.0227 36.6538C26.894 37.1354 26.871 37.0927 26.8956 35.8124C26.9466 34.4624 26.9466 33.1379 27.0485 31.7879C27.1192 31.328 27.1654 30.8557 27.2638 30.4053Z" fill="#BFC0C7"/>
<path d="M32.9602 34.2586C32.411 33.9016 33.4034 33.2338 33.9762 33.5515C35.1403 34.197 36.3044 34.8518 37.4686 35.5067V35.5067C38.193 35.9313 37.9529 36.5334 37.1522 36.2804C35.6711 35.8123 34.2783 35.1154 32.9602 34.2586V34.2586Z" fill="#BFC0C7"/>
<path d="M19.7405 27.4326C19.64 27.7591 19.1518 27.9828 18.9899 27.6821C18.6653 27.0792 18.6027 26.3815 18.6197 25.6496C18.6197 25.4459 18.6707 25.2421 18.9254 25.344C20.6022 25.9792 22.2791 26.6143 23.9306 27.2748C23.9387 27.278 23.9454 27.2841 23.9493 27.2919V27.2919C23.9593 27.312 23.9483 27.3364 23.9265 27.3419C23.0297 27.5659 22.326 26.9455 21.5235 26.7449C21.2819 26.6823 21.0498 26.5788 20.8128 26.472C20.3503 26.2637 19.8862 26.9468 19.7405 27.4326V27.4326V27.4326Z" fill="#BFC0C7"/>
<path d="M14.5312 20.8776C14.4757 21.0102 14.3336 21.1023 14.193 21.0724V21.0724C14.1734 21.0682 14.1525 21.0601 14.1336 21.0534C14.1269 21.0511 14.1202 21.049 14.1135 21.0471C14.0438 21.0273 13.9708 21.0147 13.8988 21.0226C13.7152 21.0426 13.4982 21.0689 13.7284 20.734C14.569 19.5878 15.2567 18.3652 16.0463 17.1935C16.1741 17.0068 16.2942 16.9831 16.4112 17.0288C16.7548 17.1632 17.2623 17.8664 16.9123 17.9831V17.9831C16.4284 18.1359 16.2246 18.5435 15.9699 18.8746C15.4593 19.478 14.8641 20.0815 14.5312 20.8776Z" fill="#ECE9E9"/>
<path d="M26.6072 27.4057C26.3591 27.3939 26.2441 27.0658 26.4891 27.025V27.025C27.9919 26.5665 29.4437 25.9552 30.8956 25.3693C31.0484 25.3184 31.1758 25.242 31.3032 25.4457C31.5103 25.8035 31.2441 26.9131 30.8648 27.6011C30.7084 27.8847 30.3713 27.7868 30.3107 27.4687V27.4687C30.2254 27.0214 29.5953 26.3033 29.1704 26.4668C28.6311 26.6744 28.1113 26.9002 27.5843 27.0759C27.2799 27.171 26.9613 27.4225 26.6072 27.4057Z" fill="#BFC0C7"/>
<path d="M10.7984 27.3306C10.7135 27.7975 9.71122 27.8117 9.68793 27.3377C9.68142 27.2051 9.74866 27.0357 9.88146 26.8212C10.5697 25.7659 11.1546 24.628 11.9526 23.6307C12.1007 23.4455 12.3613 23.4315 12.4084 23.6639V23.6639C12.4233 23.7376 12.4132 23.8265 12.3903 23.8981C12.3612 23.9894 12.3378 24.0808 12.3012 24.1721C11.8427 25.2419 11.0786 26.1589 10.7984 27.3306V27.3306Z" fill="#ECE9E9"/>
<path d="M33.0334 17.8482C32.9141 17.6519 33.0499 17.371 33.2128 17.2089C33.6469 16.7768 33.744 16.8775 34.1581 17.5749C34.7694 18.5937 35.5335 19.5107 36.1194 20.5295V20.5295C36.407 21.0263 35.5975 20.7589 35.2254 20.3218C34.5361 19.512 33.8889 18.6741 33.109 17.9246C33.0784 17.8952 33.0555 17.8845 33.0334 17.8482V17.8482Z" fill="#ECE9E9"/>
<path d="M37.5681 24.0035C37.4593 23.8661 37.4456 23.6853 37.5649 23.5569V23.5569C37.7119 23.3986 37.9837 23.4107 38.0947 23.596C38.684 24.5798 39.271 25.512 39.8379 26.4643C39.8888 26.5407 39.9143 26.6426 39.9653 26.6936C40.127 26.8242 40.2326 26.9397 40.29 27.0422C40.6296 27.6478 39.2308 27.6531 38.9973 26.9992V26.9992C38.647 25.9483 38.2753 24.8974 37.5681 24.0035Z" fill="#ECE9E9"/>
<path d="M37.1846 23.8011C37.2982 23.781 37.4162 23.8165 37.4906 23.9047C38.2464 24.7992 38.6105 25.9109 38.9976 26.9995C39.0274 27.0829 39.0572 27.1636 39.0909 27.2385C39.2167 27.5182 39.2519 27.8859 38.9466 27.9165V27.9165C38.7683 27.9419 38.5646 27.9419 38.5646 27.6618C38.4627 26.2608 37.5202 25.2675 36.858 24.1467V24.1467C36.7723 24.0182 36.8566 23.8496 37.0096 23.8284C37.0685 23.8203 37.1264 23.8113 37.1846 23.8011Z" fill="#BFC0C7"/>
<path d="M10.9265 27.9475C10.6725 27.925 10.7567 27.582 10.7986 27.3305V27.3305C11.0534 26.1589 11.843 25.2419 12.3014 24.1721C12.3187 24.129 12.333 24.0859 12.3464 24.0427C12.3931 23.8924 12.5145 23.7981 12.6711 23.8148V23.8148C12.9345 23.8429 13.0845 24.1484 12.9404 24.3707C12.4191 25.1751 12.0125 26.0236 11.5883 26.8721C11.5373 26.9994 11.4609 27.1013 11.4354 27.2287C11.2882 27.7685 11.204 27.9721 10.9265 27.9475Z" fill="#BFC0C7"/>
<path d="M18.6956 22.2191C18.9634 21.4973 19.6541 21.8622 19.4107 22.5926V22.5926C19.3342 22.7964 19.2324 22.9747 19.3342 23.153C19.4616 23.3567 19.6399 23.153 19.8182 23.1785V23.1785C20.2327 23.2161 20.2291 23.4752 19.8198 23.5514C19.4067 23.6284 18.9794 23.6685 18.5701 23.7897C18.188 23.9171 18.3663 23.535 18.3918 23.4077C18.4546 22.9916 18.5561 22.5949 18.6956 22.2191Z" fill="#BFC0C7"/>
<path d="M32.631 17.8043C32.7478 17.62 32.9142 17.7464 33.0736 17.8954C33.0776 17.8992 33.0819 17.9028 33.0863 17.9061C33.9984 18.7498 34.7268 19.7568 35.5455 20.6895C35.6894 20.8534 35.6551 21.1367 35.546 21.3256V21.3256C35.4505 21.4909 35.2387 21.5084 35.1155 21.3626C34.3099 20.4092 33.8289 19.186 32.7807 18.4457C32.5894 18.3106 32.5056 18.0022 32.631 17.8043V17.8043Z" fill="#BFC0C7"/>
<path d="M30.1006 23.4361C29.7573 23.3575 29.7283 23.1277 30.0805 23.1277V23.1277C30.6919 23.1787 30.7683 22.8985 30.59 22.4145C30.3375 21.6824 30.2602 20.8752 29.7629 20.241C29.754 20.2297 29.7469 20.221 29.743 20.2072V20.2072C29.7149 20.1064 29.8342 20.0038 29.9298 20.0462C30.0608 20.1042 30.1344 20.241 30.2079 20.3513C30.8956 21.2428 31.3286 22.2617 31.5834 23.357C31.6598 23.7136 31.6343 23.8409 31.2013 23.7136C30.8415 23.6086 30.4728 23.5213 30.1006 23.4361Z" fill="#BFC0C7"/>
<path d="M14.5347 21.329C14.4938 21.1844 14.4694 21.0283 14.528 20.89C14.8605 20.1059 15.4597 19.4774 15.9951 18.8489C16.2753 18.5178 16.4791 18.1103 16.9376 17.9574V17.9574C17.2314 17.8595 17.2881 17.5828 17.4671 17.8355C17.6701 18.122 17.5247 18.3105 17.014 18.6451C16.1225 19.231 15.664 20.148 15.1291 21.014C15.0678 21.112 15.0065 21.2101 14.9453 21.311C14.8297 21.5013 14.5952 21.5433 14.5347 21.329V21.329Z" fill="#BFC0C7"/>
<path d="M17.0907 24.7069C17.5342 24.9285 16.6448 25.5878 16.219 25.3339C16.1012 25.2637 15.9863 25.1925 15.8731 25.1209C15.442 24.8483 15.4608 24.195 15.966 24.2659C16.3554 24.3206 16.723 24.5373 17.0907 24.7069V24.7069Z" fill="#BFC0C7"/>
<path d="M34.664 24.7322C33.7913 25.2555 32.8329 24.3479 33.8446 24.239C34.0612 24.2157 34.3028 24.2423 34.5621 24.3248V24.3248C34.7789 24.379 34.8639 24.6322 34.664 24.7322V24.7322V24.7322Z" fill="#BFC0C7"/>
<path d="M17.2284 23.3373C17.7788 23.7424 16.8699 24.3747 16.3529 23.9278V23.9278C15.8823 23.521 16.5503 22.9399 17.0905 23.2483C17.1405 23.2768 17.1865 23.3064 17.2284 23.3373Z" fill="#ECE9E9"/>
<path d="M32.4528 23.5608C33.1345 23.2022 33.8853 23.7841 33.2339 24.195C33.1287 24.2613 33.0125 24.3212 32.8858 24.3755C32.682 24.4518 32.4273 24.681 32.3509 24.3755C32.2745 24.1463 32.0962 23.7644 32.4528 23.5608V23.5608Z" fill="#ECE9E9"/>
<path d="M43.3685 17.0061C44.0431 16.66 44.8409 16.8637 45.5925 16.9638V16.9638C45.7453 16.9893 45.8981 17.0657 45.8726 17.2694C45.8472 17.5494 45.6434 17.4221 45.5161 17.3712C44.4972 17.0402 43.6057 17.2184 42.8161 17.9822C42.7397 18.0586 42.5359 18.2878 42.3831 18.135V18.135C42.0942 17.8463 42.6738 17.4696 43.005 17.2307C43.1218 17.1465 43.2427 17.0706 43.3685 17.0061Z" fill="#BFC0C7"/>
<path d="M6.68545 17.0453C7.21194 17.2489 6.80605 17.5333 6.26537 17.3711V17.3711C5.67953 17.1675 5.09369 17.1165 4.50785 17.3711C4.43144 17.3966 4.30408 17.4984 4.22767 17.3711C4.2022 17.3202 4.2022 17.1675 4.25314 17.142C4.86445 16.7856 5.5267 16.7601 6.18895 16.9128C6.37502 16.9457 6.53994 16.9891 6.68545 17.0453Z" fill="#ECE9E9"/>
<path d="M24.4004 19.4077C24.1361 19.5201 23.8139 19.3531 23.9933 19.1288V19.1288C24.4773 18.5939 24.4773 17.8298 24.8593 17.2185C24.9011 17.1351 24.8915 17.0175 24.8308 16.9216C24.8045 16.8802 24.7809 16.8479 24.7861 16.799V16.799C24.8039 16.6316 25.0182 16.6817 25.0162 16.8501C25.0077 17.5545 24.9337 18.2057 24.8084 18.8741C24.7604 19.1463 24.6117 19.3178 24.4004 19.4077Z" fill="#BFC0C7"/>
<path d="M9.99163 19.976C9.68187 20.2608 9.55945 19.8846 9.88074 19.6129V19.6129C9.95715 19.5365 10.0336 19.4347 10.1609 19.5365C10.2628 19.6383 10.2119 19.7656 10.1354 19.842C10.0878 19.8862 10.0402 19.9313 9.99163 19.976Z" fill="#BFC0C7"/>
<path d="M41.02 20.4473C41.0123 20.4511 41.0036 20.4522 40.9952 20.4503C40.542 20.3485 40.139 20.1955 39.811 19.8676C39.7346 19.7913 39.6582 19.6894 39.76 19.5876C39.8619 19.4603 39.9384 19.5876 40.0402 19.6385C40.4096 19.8354 40.7789 20.0561 41.0332 20.3925C41.047 20.4108 41.0405 20.437 41.02 20.4473V20.4473Z" fill="#BFC0C7"/>
<path d="M11.6616 20.8813C11.2456 21.0465 11.0965 20.7647 11.4607 20.5046V20.5046C11.5881 20.4028 11.7664 20.3773 11.8683 20.5301C11.9447 20.6574 11.8173 20.8101 11.7155 20.861C11.6973 20.8674 11.6794 20.8742 11.6616 20.8813Z" fill="#BFC0C7"/>
<path d="M9.17009 19.5472C8.78306 19.7503 8.63719 19.3998 9.01478 19.1796V19.1796C9.11666 19.1287 9.29496 18.9505 9.42232 19.1287C9.5242 19.2815 9.37137 19.4342 9.24402 19.5106C9.21927 19.522 9.19467 19.5343 9.17009 19.5472Z" fill="#BFC0C7"/>
<path d="M41.1023 19.3296C41.327 19.5025 41.0955 19.7709 40.8844 19.5817C40.8649 19.5643 40.8458 19.5459 40.8272 19.5266C40.6584 19.3519 40.9098 19.1815 41.1023 19.3296V19.3296Z" fill="#BFC0C7"/>
<path d="M7.96797 18.9352C8.16792 18.776 8.43749 18.9468 8.26498 19.1354C8.2258 19.1783 8.18223 19.2169 8.13399 19.2515C7.90716 19.4146 7.74944 19.1092 7.96797 18.9352V18.9352Z" fill="#BFC0C7"/>
<path d="M41.6562 19.1361C41.4637 18.9345 41.7596 18.7423 41.9777 18.9159V18.9159C42.2055 19.0971 42.0462 19.4087 41.8001 19.2531C41.7461 19.2189 41.6981 19.1799 41.6562 19.1361Z" fill="#BFC0C7"/>
<path d="M10.3576 20.3315C10.56 20.1756 10.8272 20.3448 10.6495 20.5283C10.6061 20.5732 10.5578 20.6125 10.5047 20.6464C10.2792 20.7904 10.1457 20.4948 10.3576 20.3315V20.3315Z" fill="#BFC0C7"/>
<path d="M39.4993 20.263C39.7274 20.4478 39.4949 20.7178 39.27 20.5293C39.2549 20.5168 39.2402 20.5037 39.2256 20.4901C39.0282 20.306 39.2896 20.0931 39.4993 20.263V20.263Z" fill="#BFC0C7"/>
<path d="M39.1312 21.2624C39.1076 21.2806 39.078 21.2903 39.049 21.283C38.7145 21.1994 38.4488 21.0014 38.2296 20.7337V20.7337C38.1138 20.6179 38.3035 20.4065 38.4421 20.4937C38.4478 20.4973 38.4534 20.501 38.4589 20.5046C38.6975 20.6998 38.9178 20.895 39.151 21.0902C39.2041 21.1347 39.1859 21.2199 39.1312 21.2624V21.2624Z" fill="#BFC0C7"/>
<path d="M28.7774 23.2283C28.6981 23.2054 28.688 23.0947 28.7615 23.0571C28.8083 23.0331 28.8448 23.0438 28.8743 23.0839C28.926 23.1541 28.8612 23.2524 28.7774 23.2283V23.2283Z" fill="#BFC0C7"/>
<path d="M21.9491 23.1143C21.839 23.1216 21.8038 22.9963 21.9132 22.982C21.9208 22.981 21.9285 22.9802 21.9361 22.9796C22.0553 22.9701 22.0685 23.1065 21.9491 23.1143V23.1143Z" fill="#BFC0C7"/>
<path d="M21.1655 23.2134C21.0751 23.2344 20.994 23.117 21.0591 23.0509C21.0947 23.0148 21.138 23.013 21.1869 23.0533C21.2453 23.1015 21.2392 23.1963 21.1655 23.2134V23.2134Z" fill="#BFC0C7"/>
<path d="M39.8677 36.9399C39.7897 36.9111 39.7916 36.8071 39.8559 36.7544V36.7544C39.893 36.724 39.9428 36.7085 39.9842 36.7328C40.0453 36.7687 40.0779 36.8255 40.04 36.8823C39.9826 36.9541 39.9251 36.9611 39.8677 36.9399Z" fill="#BFC0C7"/>
<path d="M39.4067 21.3822C39.4205 21.3753 39.4372 21.378 39.4481 21.3889C39.4523 21.393 39.4567 21.3974 39.4612 21.402C39.4936 21.4343 39.4753 21.493 39.4348 21.4717C39.417 21.4624 39.4024 21.4468 39.3909 21.4248C39.3826 21.409 39.3908 21.3902 39.4067 21.3822V21.3822Z" fill="#BFC0C7"/>
<path d="M39.1817 21.2221C39.2222 21.1958 39.2805 21.1842 39.3245 21.2042C39.3687 21.2243 39.4088 21.2457 39.4232 21.2983C39.4307 21.326 39.4126 21.3528 39.3869 21.3656V21.3656C39.3809 21.3686 39.3745 21.3709 39.3679 21.3721C39.2863 21.3868 39.2157 21.3799 39.1629 21.3445C39.1164 21.3133 39.1347 21.2527 39.1817 21.2221V21.2221Z" fill="#BFC0C7"/>
<path d="M41.0068 20.4313C41.0238 20.4143 41.05 20.41 41.0699 20.4235C41.0936 20.4395 41.1174 20.4585 41.1411 20.4754C41.1633 20.4912 41.1706 20.5222 41.1513 20.5415V20.5415C41.1438 20.5489 41.1312 20.5556 41.1206 20.5555C41.0614 20.5551 41.0192 20.5496 40.9938 20.484C40.9867 20.4657 40.9929 20.4452 41.0068 20.4313V20.4313Z" fill="#BFC0C7"/>
<path d="M14.0078 20.9883V20.9883C14.0438 21.0063 14.0438 21.0063 14.0078 20.9883V20.9883Z" fill="#BFC0C7"/>
<path d="M29.7306 19.9499C29.749 19.9816 29.7107 19.9988 29.6887 19.9695V19.9695C29.6666 19.9401 29.6898 19.9018 29.7149 19.9286C29.7208 19.9349 29.726 19.9419 29.7306 19.9499Z" fill="#BFC0C7"/>
<path d="M27.9231 23.086C27.9003 23.0834 27.9045 23.0531 27.9269 23.0582V23.0582C27.9459 23.0625 27.9545 23.0872 27.935 23.0868C27.931 23.0867 27.927 23.0864 27.9231 23.086Z" fill="#BFC0C7"/>
</svg>
