<svg width="50" height="50" viewBox="0 0 50 50" fill="none" xmlns="http://www.w3.org/2000/svg">
<path d="M0 25C0 38.8071 11.1929 50 25 50C38.8071 50 50 38.8071 50 25C50 11.1929 38.8071 0 25 0C11.1929 0 0 11.1929 0 25Z" fill="#050709"/>
<path d="M37.5328 26.4828C37.3073 26.3886 37.3673 26.0538 37.6115 26.0438V26.0438C37.7339 26.0388 37.8306 25.9381 37.8306 25.8156V21.7594C37.8306 21.1183 37.4647 20.5334 36.8881 20.2529V20.2529C36.863 20.2403 36.8316 20.2278 36.7972 20.2152C36.723 20.1882 36.6474 20.1478 36.5882 20.0956V20.0956C36.4314 19.9575 36.3698 19.7493 36.398 19.5422L36.4296 19.3104V19.3104C36.4296 19.2935 36.4314 19.2766 36.4345 19.26C36.4582 19.1317 36.4806 18.9378 36.4806 18.6991C36.4551 18.2916 36.4296 17.8841 36.4042 17.502C36.3532 16.6614 36.3023 15.8718 36.3278 15.1077C36.4042 13.7577 35.9202 12.7134 35.4872 11.9238C35.3344 11.6691 35.207 11.3634 35.0797 11.0833C35.0542 11.0068 35.0033 10.9049 34.9778 10.7776C34.9523 10.6757 34.9268 10.5993 34.8759 10.4974L34.8607 10.4524C34.5284 9.46832 33.3711 9.04416 32.4816 9.58045V9.58045C32.3797 9.63139 32.1505 9.75875 31.9467 9.96252C30.5396 11.4198 29.1326 12.8524 27.7744 14.2601C27.7402 14.2956 27.6888 14.3082 27.6421 14.2926V14.2926C25.7063 13.503 24.9167 13.4266 22.9554 13.8341C22.7771 13.8596 22.5988 13.9106 22.4205 13.936C22.1006 14.0098 21.8045 14.0599 21.5321 14.1091C21.5131 14.1126 21.494 14.1137 21.4749 14.1167V14.1167C21.3946 14.1289 21.3176 14.1092 21.258 14.0541L17.5057 10.5879C16.6315 9.78032 15.2172 10.1197 14.8046 11.2361V11.2361C14.7027 11.5417 14.5753 11.8219 14.4735 12.1021C14.1933 12.7644 13.9131 13.4775 13.7603 14.2162C13.5565 15.0822 13.4801 15.9482 13.4037 16.7888C13.3782 17.0944 13.3527 17.4256 13.3018 17.7312C13.2763 18.0624 13.2254 18.368 13.1999 18.6991L13.0445 20.0975C12.9964 20.5307 12.791 20.9171 12.5377 21.2718V21.2718C12.3594 21.5265 12.0537 21.9849 11.9773 22.5962C11.8245 23.9717 11.6716 25.449 11.5188 27.1301C11.4679 27.6141 11.5952 28.1235 11.8754 28.582C12.4358 29.5244 12.9961 30.4414 13.531 31.3329C13.6329 31.4857 13.7348 31.6131 13.8112 31.7404C13.8215 31.7609 13.8358 31.7814 13.8526 31.8019C13.9057 31.8664 13.9632 31.9272 14.0124 31.9947L15.6007 34.1786C15.7517 34.3864 16.0761 34.3266 16.1432 34.0787V34.0787C16.2099 33.8326 16.5307 33.7713 16.6834 33.9756L17.7826 35.4467C17.9357 35.6515 18.2034 35.7343 18.4454 35.6515L18.6161 35.5931C18.8317 35.5193 19.0641 35.6364 19.1556 35.8451C19.2012 35.9489 19.2513 36.0523 19.3072 36.1575C19.3582 36.2537 19.305 36.3739 19.1984 36.3963V36.3963C19.0789 36.4215 19.0308 36.5661 19.1115 36.6579L20.7903 38.5667C20.8922 38.6941 20.9941 38.796 21.096 38.8978C21.3507 39.178 21.5799 39.4582 21.8346 39.7129C22.0639 39.9676 22.5478 40.3752 23.2356 40.4261C23.7705 40.4771 24.3308 40.5025 24.8657 40.528L26.0792 40.5967C26.168 40.6017 26.253 40.6342 26.3224 40.6898V40.6898C26.4824 40.8177 26.7105 40.8145 26.8667 40.682L31.7732 36.5217C31.9105 36.4052 31.847 36.1812 31.6689 36.1543V36.1543C31.5039 36.1292 31.4327 35.9309 31.5443 35.8067L33.0423 34.1384C33.3461 33.8001 33.7939 33.6278 34.2461 33.6751V33.6751C34.8385 33.737 35.4069 33.4228 35.6693 32.8881L38.4115 27.2997C38.5108 27.0972 38.4191 26.853 38.211 26.7661L37.5328 26.4828ZM30.9024 36.0487C30.8878 36.0466 30.8773 36.0338 30.8832 36.0203C30.8833 36.02 30.8835 36.0198 30.8836 36.0195C30.8931 35.9982 30.9284 35.986 30.9479 35.999V35.999C30.9738 36.0163 30.9584 36.0567 30.9275 36.0523L30.9024 36.0487Z" fill="#F4F2F1"/>
<path d="M24.328 24.6827C24.4453 24.782 24.8674 25.4115 24.8393 25.5626C24.8023 25.7618 24.772 25.9609 24.761 26.1601C24.7373 26.7754 24.7576 27.4127 24.7606 28.0312C24.761 28.1141 24.6989 28.2038 24.618 28.2221V28.2221C24.6047 28.225 24.601 28.2216 24.5878 28.2186C23.7167 28.0194 23.7157 28.0132 23.5893 27.2044C23.5129 26.644 23.411 26.0836 23.2837 25.5487C23.2582 25.4469 23.2072 25.3195 23.1308 25.2431C22.8438 24.9561 22.5369 24.6791 22.2162 24.4058C22.0729 24.2836 21.8666 24.4097 21.9485 24.5793V24.5793C22.0168 24.7211 21.8859 24.909 21.7373 24.8573C21.7176 24.8504 21.6983 24.8433 21.679 24.8356C20.7111 24.428 19.7432 24.0714 18.8007 23.6384C18.1613 23.3297 17.4837 23.231 16.7349 23.2265C16.5765 23.2256 16.4714 23.4047 16.5592 23.5365V23.5365C17.196 24.3261 17.8328 25.1412 18.4951 25.9053C18.6479 26.0836 18.8517 26.211 19.0554 26.3129C20.1252 26.7459 21.195 27.2044 22.2648 27.5864C22.6469 27.7138 22.8252 27.9176 22.8506 28.2487C22.8712 28.4749 22.925 28.7178 22.9718 28.9773C22.9903 29.0803 22.9418 29.1731 22.8381 29.1872V29.1872C22.6671 29.2105 22.5955 29.4456 22.7377 29.5436C23.0567 29.7633 23.3422 29.9673 23.6657 30.0572C23.6889 30.0636 23.7124 30.0695 23.7361 30.0748C24.0441 30.1439 24.7275 31.0411 24.71 31.3562V31.3562C24.6846 32.1967 24.71 32.1967 23.8185 32.375C23.4401 32.4507 23.0617 32.5264 22.6585 32.6021C22.6508 32.6036 22.6431 32.6044 22.6353 32.6039V32.6039C22.5592 32.5985 22.5024 32.512 22.5118 32.4363C22.5142 32.4168 22.5167 32.3973 22.5191 32.3777C22.5387 32.2186 22.3613 32.1278 22.2657 32.2565C21.8092 32.8709 22.0252 33.5584 22.112 34.209C22.112 34.2959 22.2605 34.3644 22.3674 34.4301C22.4016 34.4511 22.4361 34.4721 22.4726 34.4889C22.8045 34.641 23.1374 34.7937 23.4918 34.9594C23.7357 35.0734 23.8885 35.7849 23.8532 36.0518V36.0518C23.8403 36.1493 23.7572 36.2026 23.6595 36.2134C23.0213 36.2839 22.3647 36.3544 21.7299 36.425C21.679 36.425 21.6026 36.4249 21.5261 36.3995C21.1441 36.2212 20.3799 34.9731 20.4054 34.5656C20.4563 34.0052 20.5073 33.4448 20.5073 32.8845C20.5073 32.7571 20.4309 32.6043 20.329 32.5024C20.1507 32.2732 19.9469 32.0439 19.7177 31.8402C19.0072 31.1804 18.4736 30.4701 18.2933 29.5581C18.292 29.5513 18.2916 29.5461 18.2908 29.5392V29.5392C18.282 29.4581 18.1593 29.4861 18.1362 29.5643C17.7133 31.0002 18.0221 32.3479 18.6123 33.6715C18.632 33.7156 18.6128 33.7656 18.566 33.7773V33.7773C18.5239 33.7879 18.4761 33.7762 18.4501 33.7415C17.5891 32.5928 16.7272 31.4247 15.8147 30.2206C15.6633 30.0208 15.3454 30.0849 15.2758 30.3256C15.273 30.3354 15.2701 30.3452 15.2673 30.355C15.2022 30.5792 14.8964 30.6394 14.7763 30.4392V30.4392C14.2159 29.5223 13.681 28.6053 13.1206 27.6883C13.0442 27.561 12.9678 27.3827 12.9933 27.2298C13.1461 25.727 13.2735 24.2242 13.4518 22.7214C13.4772 22.5431 13.6046 22.3394 13.7319 22.1865C13.8593 22.0083 14.0121 21.8554 14.165 21.7026C15.0055 20.9894 15.5149 20.0979 15.7442 19.079C15.8206 18.7224 16.0244 18.4932 16.4319 18.4168C16.9668 18.3404 17.1451 18.0347 17.1451 17.5763V17.5763C17.1451 16.9414 17.7982 16.5208 18.3897 16.7511C19.6406 17.238 20.6899 17.9544 21.4028 19.08C21.427 19.1182 21.4819 19.1233 21.5138 19.0914V19.0914C21.5367 19.0685 21.5394 19.0341 21.5222 19.0065C21.0226 18.2081 20.5239 17.4327 20.0743 16.6083C19.7177 15.9716 19.2337 15.4621 18.5715 15.0546C17.8709 14.6293 17.2196 14.1548 16.5691 13.7036C16.5461 13.6877 16.5214 13.6786 16.4938 13.6828V13.6828C16.4187 13.6943 16.3556 13.7662 16.3529 13.842C16.3399 14.2038 16.2848 14.5655 16.33 14.9272C16.381 15.5131 16.5338 16.0734 16.6102 16.6338C16.6357 16.7612 16.5847 16.9649 16.5083 17.0159C15.6827 17.4662 15.3731 18.2606 14.9279 18.9645C14.9119 18.9899 14.8922 19.0129 14.8747 19.0373C14.8453 19.0782 14.8231 19.1262 14.7912 19.1645C14.7821 19.1754 14.7868 19.1798 14.7726 19.1812V19.1812C14.7339 19.1849 14.679 19.1625 14.6831 19.1238C14.7311 18.6701 14.7792 18.2378 14.8272 17.8055C14.9546 16.6847 15.0055 15.564 15.2602 14.4433C15.3255 14.1577 15.4143 13.8747 15.5166 13.5893C15.8434 12.6775 17.0418 12.411 17.7543 13.0673C18.6749 13.9153 19.5714 14.7481 20.489 15.5972C20.6875 15.7809 21.3862 15.6815 21.6535 15.6404V15.6404C22.1629 15.564 22.6469 15.4367 23.1563 15.3348C24.0317 15.157 24.5692 15.0893 25.1317 15.1674C25.5211 15.2214 25.4364 15.7168 25.0432 15.7168V15.7168C24.8455 15.7168 24.6846 15.8771 24.6846 16.0749C24.6846 18.1654 24.6846 20.2586 24.6846 22.4023C24.6846 22.724 24.3572 22.9257 24.1069 22.7235V22.7235C23.7632 22.4459 23.3697 22.7292 23.5991 23.1067C23.6464 23.1845 23.6935 23.262 23.7406 23.3394C23.7565 23.3654 23.7525 23.3988 23.7309 23.4204V23.4204C23.708 23.4433 23.6719 23.4462 23.6457 23.4272C22.7567 22.785 21.8446 22.1196 20.9557 21.4774C20.9321 21.4604 20.8915 21.4594 20.8712 21.4802V21.4802C20.8602 21.4914 20.8701 21.505 20.8812 21.5162C20.9519 21.5868 21.0225 21.6574 21.0931 21.7281C22.1629 22.7214 23.2582 23.6893 24.328 24.6827V24.6827Z" fill="black"/>
<path d="M33.137 11.09C33.1925 11.0139 33.3065 11.0591 33.3357 11.1487C33.4033 11.3562 33.4521 11.5381 33.533 11.7201C33.6858 12.0512 33.8386 12.3824 34.0169 12.688C34.4245 13.4012 34.6792 14.1144 34.6537 14.9804C34.5773 16.2285 34.7556 17.4766 34.8065 18.7502C34.8065 18.8354 34.7887 18.9206 34.768 19.0206C34.7607 19.0559 34.7295 19.0813 34.6935 19.0813V19.0813C34.656 19.0813 34.6243 19.0536 34.619 19.0165C34.5456 18.5051 34.4723 18.0153 34.399 17.5021C34.2716 16.5087 34.2462 15.5153 34.0169 14.5474V14.5474C33.7178 13.2762 32.0376 12.9382 31.0824 13.8287C30.3312 14.529 29.5986 15.2141 28.8733 15.8987C28.8418 15.9285 28.7956 15.9354 28.7607 15.9096V15.9096C28.7123 15.8738 28.694 15.802 28.718 15.7467C28.762 15.6454 28.7955 15.5406 28.8717 15.4644C30.267 14.0184 31.6874 12.5725 33.108 11.1265C33.1196 11.1148 33.1273 11.1033 33.137 11.09V11.09Z" fill="black"/>
<path d="M33.3833 29.7903C33.5484 29.5382 33.9345 29.5727 34.0897 29.8311V29.8311C34.2412 30.0834 34.5864 30.0614 34.7492 29.8162C35.205 29.1296 35.6609 28.4553 36.1167 27.7815C36.1425 27.7433 36.1926 27.7302 36.2337 27.7508V27.7508C36.2786 27.7733 36.2971 27.8276 36.2753 27.8727C35.6146 29.2403 34.9313 30.5854 34.2704 31.9529C34.2432 32.0091 34.1873 32.0509 34.1261 32.0379V32.0379C34.0917 32.0305 34.0646 32.0024 34.0488 31.971C34.0275 31.9287 34.0062 31.8868 33.9847 31.845C33.7933 31.4707 33.2774 31.3981 32.9961 31.7106C32.3048 32.4787 31.625 33.232 30.9455 33.9706C30.9122 34.0068 30.8605 34.0169 30.8182 33.9916V33.9916C30.7621 33.9581 30.7413 33.8818 30.7764 33.8266C31.6145 32.5048 32.4724 31.1814 33.3833 29.7903Z" fill="black"/>
<path d="M25.5829 28.9279C25.5561 28.9188 25.5157 28.8895 25.5202 28.8615C25.6957 27.7577 25.8715 26.6301 26.0721 25.5271C26.0976 25.3488 26.2504 25.1705 26.4032 25.0431C26.8362 24.6101 27.2947 24.1771 27.7787 23.7441C27.8805 23.6422 28.0334 23.5658 28.1862 23.5403C29.5871 23.1837 31.0135 22.8526 32.4144 22.496C32.7459 22.425 33.0773 22.3099 33.4088 22.2327C33.4531 22.2224 33.5034 22.2446 33.5223 22.286V22.286C33.5381 22.3203 33.5137 22.3537 33.4808 22.3723C33.397 22.4197 33.3133 22.4751 33.2295 22.496C31.6758 23.0054 30.1475 23.4894 28.5937 23.9988C28.3645 24.0752 28.1607 24.228 27.9824 24.4063C27.5239 24.8648 27.04 25.3488 26.6579 25.8582C26.4287 26.1893 26.3777 26.6478 26.2504 27.0299C26.0518 27.6504 25.8533 28.2709 25.6311 28.8914C25.6218 28.9174 25.609 28.9367 25.5829 28.9279V28.9279Z" fill="black"/>
<path d="M31.898 18.1916C31.9155 18.1441 31.9664 18.1147 32.017 18.1172C32.5496 18.1438 33.0822 18.1922 33.6149 18.2406V18.2406C33.8395 18.2406 33.9186 18.5461 34.0074 18.7524C34.1105 18.9921 34.2062 19.2404 34.2771 19.4887C34.4809 20.3548 35.0922 20.9661 35.7544 21.5264V21.5264C36.0034 21.7256 36.2129 21.9507 36.2129 22.2695C36.2129 22.9583 36.2129 23.647 36.2129 24.3358C36.2129 24.3879 36.1804 24.4301 36.1283 24.4301V24.4301C36.0804 24.4301 36.0304 24.3943 36.0245 24.3468C35.9742 23.9445 35.9073 23.5617 35.9073 23.1566C35.9073 22.6217 35.678 22.1887 35.245 21.883C34.2516 21.1189 33.8441 20.0746 33.4875 19.0302C33.4111 18.7755 33.2837 18.6482 33.029 18.5972C32.7488 18.5463 32.4432 18.4953 32.163 18.4189C32.0852 18.3995 32.0223 18.3503 31.9515 18.3055C31.9105 18.2795 31.8812 18.2372 31.898 18.1916V18.1916Z" fill="black"/>
<path d="M25.4515 38.8854C25.4421 38.9087 25.419 38.9252 25.394 38.9234C24.696 38.8745 24.0215 38.849 23.3225 38.7991C23.2206 38.7991 23.0932 38.6972 23.0168 38.6208V38.6208C22.5593 38.1281 22.8298 37.324 23.4846 37.1713C23.6169 37.1404 23.7493 37.1092 23.8823 37.0777C24.3369 36.97 24.8166 37.315 24.7743 37.7802V37.7802C24.7274 38.2499 24.7237 38.6763 25.3821 38.74C25.4362 38.7452 25.4718 38.835 25.4515 38.8854V38.8854Z" fill="black"/>
<path d="M30.1299 16.7772C30.0686 16.8342 29.9588 16.7966 29.9179 16.7235V16.7235C29.8716 16.6409 29.7626 16.6528 29.7075 16.7298C29.1359 17.5282 28.5824 18.2877 28.0096 19.0459C27.9716 19.0963 27.9057 19.1175 27.8495 19.0887V19.0887C27.798 19.0623 27.7845 18.9959 27.8115 18.9447C27.9708 18.6423 28.1144 18.3399 28.3005 18.0375C28.7081 17.3497 29.1411 16.662 29.5996 15.9998C29.7269 15.796 29.9307 15.5922 30.1599 15.4649C30.975 14.9809 31.841 14.5224 32.6816 14.0385C32.7692 13.9947 32.8757 13.9697 32.9687 13.9311C32.9953 13.9201 33.0215 13.9203 33.0391 13.9432V13.9432C33.0677 13.9803 33.0778 14.0471 33.0434 14.079C32.065 14.9856 31.129 15.8499 30.1299 16.7772Z" fill="black"/>
<path d="M26.6311 36.408C26.573 36.3296 26.6215 36.1891 26.7175 36.1718V36.1718C26.7336 36.1689 26.7355 36.1737 26.7509 36.1788C27.7796 36.5189 28.3089 35.9614 28.6375 35.2284C28.7904 34.8463 28.714 34.3878 28.714 33.9803C28.714 33.5982 28.663 33.2162 28.663 32.8341C28.663 32.7577 28.663 32.6813 28.714 32.6303C29.2743 32.0445 29.8602 31.4332 30.446 30.8473V30.8473C30.5233 30.7701 30.6264 30.9433 30.5668 31.0349C30.4175 31.2642 30.2932 31.4649 30.1404 31.6369C29.4781 32.3756 29.0706 33.1397 29.3507 34.1076C29.4526 34.4133 29.4526 34.7444 29.4526 35.0501C29.4526 35.1265 29.4017 35.2539 29.3253 35.3303C28.9687 35.7378 28.6375 36.1199 28.2555 36.5019C28.1536 36.6038 27.9244 36.6803 27.7461 36.6803C27.4253 36.6556 27.0807 36.5831 26.7584 36.486C26.7377 36.4797 26.7152 36.4784 26.6957 36.4691C26.6728 36.4582 26.6519 36.436 26.6311 36.408Z" fill="black"/>
<path d="M21.8392 25.7266C22.5047 26.0593 21.5875 26.7701 20.9022 26.4805C20.6448 26.3718 20.3887 26.2639 20.1327 26.1596C20.0817 26.1341 20.0563 26.1087 20.0308 26.0577C19.7506 25.4209 19.1138 25.0898 18.528 24.7078C18.5122 24.6959 18.497 24.6834 18.4825 24.6701C18.3424 24.5408 18.5357 24.2913 18.7063 24.3766V24.3766C19.7506 24.8096 20.7949 25.2681 21.8392 25.7266V25.7266Z" fill="black"/>
<path d="M33.044 23.3805C33.085 23.4161 33.085 23.4713 33.0523 23.5147C32.6891 23.9966 32.3248 24.4577 31.9375 24.9418V24.9418C31.9206 24.9587 31.9063 24.9784 31.8949 24.9994C31.1234 26.4245 29.4815 26.7801 28.0404 27.3616V27.3616C27.8157 27.448 27.7488 27.2575 27.9618 27.1455C29.8329 26.1615 31.5971 25.0632 32.8378 23.3889C32.8833 23.3275 32.9862 23.3305 33.044 23.3805V23.3805Z" fill="black"/>
<path d="M22.995 33.635C22.8548 33.7147 22.6373 33.6544 22.6057 33.4963V33.4963C22.5293 33.2161 22.6311 33.0378 23.0132 32.9869C23.4972 32.9359 23.9811 32.8086 24.4651 32.7576V32.7576C24.7053 32.7276 24.8306 33.0489 24.6741 33.2336C24.648 33.2643 24.6212 33.2965 24.5933 33.3304C24.559 33.3723 24.5165 33.4079 24.465 33.4247C24.0651 33.5556 23.4842 33.357 22.995 33.635Z" fill="black"/>
<path d="M26.5163 37.0932C27.1643 37.1973 27.4011 38.0226 26.9015 38.4482C26.7873 38.5456 26.6751 38.6411 26.5643 38.7354C26.5376 38.7581 26.4991 38.7626 26.4736 38.7386V38.7386C26.4336 38.7008 26.424 38.6304 26.4573 38.5867C26.5568 38.4558 26.6567 38.3213 26.7584 38.1848C26.9638 37.9092 26.8447 37.5099 26.5172 37.4055C26.2685 37.3261 26.0224 37.2503 25.7821 37.1749C25.7284 37.158 25.6961 37.1044 25.7082 37.0493V37.0493C25.7178 37.0053 25.7634 36.9698 25.8079 36.9772C26.0404 37.0159 26.2756 37.0545 26.5163 37.0932Z" fill="black"/>
<path d="M25.8597 35.2269C25.6962 35.4023 25.3791 35.3048 25.3375 35.0686V35.0686C25.3146 34.9387 25.4021 34.8491 25.5298 34.816C25.868 34.7285 26.2016 34.6497 26.4934 34.5247C26.8476 34.373 27.2895 34.4864 26.9388 34.6458V34.6458C26.8114 34.6968 26.7095 34.7477 26.5822 34.7986C26.1833 34.9741 26.0343 35.0397 25.8597 35.2269Z" fill="black"/>
<path d="M26.8301 31.7476C26.8789 31.7355 26.9314 31.7727 26.9478 31.8202C26.9762 31.9019 27.0037 31.984 27.0314 32.0682C27.1541 32.4407 26.8154 32.8143 26.4342 32.7218C25.9713 32.6093 25.5346 32.5026 25.1079 32.3961C25.0651 32.3855 25.0351 32.3557 25.0447 32.3127V32.3127C25.057 32.2575 25.1094 32.2043 25.1657 32.21C25.5365 32.2472 25.9195 32.295 26.3145 32.3366C26.5528 32.3617 26.7711 32.1903 26.7864 31.9512C26.7893 31.9061 26.7913 31.861 26.7922 31.8159C26.7928 31.7844 26.7996 31.7551 26.8301 31.7476V31.7476Z" fill="black"/>
</svg>
