<svg width="79" height="79" viewBox="0 0 79 79" fill="none" xmlns="http://www.w3.org/2000/svg">
<g clip-path="url(#clip0_3333_3105)">
<path d="M48.19 27.65L59.25 38.71C60.04 39.5 60.435 40.4217 60.435 41.475C60.435 42.5283 60.04 43.45 59.25 44.24L25.675 77.815C24.885 78.605 23.9962 79 23.0087 79C22.0212 79 21.1325 78.605 20.3425 77.815L9.2825 66.755C8.4925 65.965 8.0975 65.0104 8.0975 63.8913C8.0975 62.7721 8.4925 61.8175 9.2825 61.0275L42.66 27.65C43.45 26.86 44.3717 26.465 45.425 26.465C46.4783 26.465 47.4 26.86 48.19 27.65ZM79 13.43L62.2125 30.2175L56.6825 24.6875L73.47 7.9L79 13.43ZM27.65 13.825C27.65 17.6433 26.3004 20.9021 23.6012 23.6012C20.9021 26.3004 17.6433 27.65 13.825 27.65C10.0067 27.65 6.74791 26.3004 4.04875 23.6013C1.34958 20.9021 -2.68199e-06 17.6433 -2.84889e-06 13.825C-3.01579e-06 10.0067 1.34958 6.74791 4.04875 4.04875C6.74791 1.34958 10.0067 -1.39108e-06 13.825 -1.55798e-06C17.6433 -1.72489e-06 20.9021 1.34958 23.6012 4.04875C26.3004 6.74791 27.65 10.0067 27.65 13.825Z" fill="#400808"/>
</g>
<defs>
<clipPath id="clip0_3333_3105">
<rect width="79" height="79" fill="white" transform="translate(0 79) rotate(-90)"/>
</clipPath>
</defs>
</svg>
