<svg width="79" height="79" viewBox="0 0 79 79" fill="none" xmlns="http://www.w3.org/2000/svg">
<g clip-path="url(#clip0_3333_3102)">
<path d="M67.308 11.2575C60.593 4.74 52.6535 0.9875 43.45 0V14.299L79 34.76C77.894 25.675 73.9835 17.775 67.308 11.2575ZM39.5 79C53.088 79 63.832 73.549 71.7715 62.647L59.487 55.3L23.9765 75.84C28.914 77.9335 34.128 79 39.5 79ZM43.45 37.1695L75.6425 55.5765C77.3805 51.8635 78.526 47.953 79 43.8845L43.45 23.4235V37.1695ZM7.426 62.4495C10.033 66.044 12.877 68.967 15.9975 71.1L51.508 50.955L39.5 44.0425L7.426 62.4495ZM35.708 0C31.6 0.3555 27.65 1.422 23.7 3.16V44.0425L35.708 37.1695V0ZM0 39.5C0 44.9905 1.185 50.4415 3.5155 55.774L15.8 48.506V7.9C5.2535 15.8 0 26.2675 0 39.5Z" fill="#410909"/>
</g>
<defs>
<clipPath id="clip0_3333_3102">
<rect width="79" height="79" fill="white"/>
</clipPath>
</defs>
</svg>
