<svg width="79" height="79" viewBox="0 0 79 79" fill="none" xmlns="http://www.w3.org/2000/svg">
<g clip-path="url(#clip0_3328_3028)">
<path d="M39.5017 0.467285C17.9792 0.467285 0.46875 17.9777 0.46875 39.5002C0.46875 61.0228 17.9792 78.5332 39.5017 78.5332C61.0242 78.5332 78.5346 61.0228 78.5346 39.5002C78.5346 17.9777 61.0242 0.467285 39.5017 0.467285ZM66.3368 57.5154H57.8509C57.588 57.5148 57.3298 57.4452 57.1022 57.3134C56.8747 57.1817 56.6857 56.9925 56.5542 56.7648L53.5254 51.5704C53.326 51.2308 53.268 50.8264 53.364 50.4445L56.1526 39.2C56.2086 38.9734 56.3166 38.763 56.468 38.5855C56.6195 38.4079 56.8103 38.2682 57.0252 38.1772L62.2984 35.9441C62.5561 35.8348 62.8392 35.7998 63.1158 35.8429C63.3923 35.886 63.6513 36.0055 63.8635 36.1881L71.6757 42.91C71.8683 43.0758 72.0156 43.2878 72.1039 43.526C72.1922 43.7643 72.2186 44.0211 72.1805 44.2724C71.5335 48.7111 69.9828 52.9699 67.6242 56.7854C67.4909 57.0079 67.3023 57.1921 67.0767 57.3201C66.8511 57.448 66.5962 57.5153 66.3368 57.5154ZM16.705 35.9591L21.9782 38.1922C22.1931 38.2832 22.3839 38.4229 22.5353 38.6005C22.6868 38.778 22.7948 38.9884 22.8508 39.215L25.6394 50.4595C25.7353 50.8414 25.6774 51.2458 25.478 51.5854L22.4492 56.7648C22.3177 56.9925 22.1287 57.1817 21.9012 57.3134C21.6736 57.4452 21.4154 57.5148 21.1525 57.5154H12.6665C12.4099 57.5156 12.1575 57.45 11.9334 57.3248C11.7094 57.1996 11.5211 57.0191 11.3867 56.8005C9.02811 52.985 7.47736 48.7261 6.83037 44.2874C6.79233 44.0361 6.81869 43.7793 6.90698 43.5411C6.99527 43.3028 7.1426 43.0908 7.33517 42.925L15.1474 36.2031C15.3589 36.022 15.6165 35.9033 15.8916 35.8602C16.1666 35.8171 16.4482 35.8514 16.705 35.9591ZM64.9219 19.5878L61.5309 29.2297C61.4628 29.4267 61.3543 29.6074 61.2125 29.7602C61.0706 29.9131 60.8985 30.0347 60.7071 30.1173L55.1562 32.4687C54.9014 32.5764 54.6219 32.6117 54.3483 32.5707C54.0748 32.5296 53.818 32.4138 53.6061 32.236L43.0484 23.3804C42.8797 23.2408 42.7436 23.066 42.6496 22.8683C42.5556 22.6705 42.506 22.4546 42.5042 22.2357V15.9341C42.5044 15.6872 42.5654 15.4441 42.6819 15.2264C42.7985 15.0088 42.9669 14.8232 43.1723 14.6862L51.2097 9.33039C51.4195 9.19038 51.6611 9.10547 51.9123 9.0835C52.1636 9.06152 52.4163 9.10319 52.6472 9.20466C57.272 11.2216 61.3762 14.2662 64.6479 18.1072C64.8199 18.308 64.9358 18.5507 64.984 18.8107C65.0321 19.0706 65.0107 19.3387 64.9219 19.5878ZM27.7918 9.33039L35.8311 14.6862C36.0365 14.8232 36.2049 15.0088 36.3214 15.2264C36.438 15.4441 36.499 15.6872 36.4992 15.9341V22.2357C36.4991 22.455 36.4511 22.6716 36.3584 22.8703C36.2656 23.0691 36.1305 23.2451 35.9625 23.386L25.4048 32.2416C25.1929 32.4194 24.9361 32.5352 24.6625 32.5763C24.389 32.6174 24.1095 32.5821 23.8547 32.4743L18.2963 30.1173C18.1037 30.0357 17.9302 29.9148 17.787 29.7623C17.6439 29.6097 17.5342 29.429 17.465 29.2316L14.074 19.5897C13.9859 19.3397 13.9655 19.0709 14.0149 18.8105C14.0644 18.5501 14.1819 18.3074 14.3555 18.1072C17.6291 14.2624 21.7367 11.2151 26.3656 9.19715C26.5956 9.09878 26.8465 9.05944 27.0956 9.08271C27.3447 9.10597 27.584 9.19112 27.7918 9.33039ZM31.0402 70.781L27.3377 61.4563C27.253 61.2443 27.2178 61.0158 27.2347 60.7882C27.2516 60.5605 27.3202 60.3398 27.4353 60.1426L30.282 55.2635C30.4135 55.0358 30.6025 54.8466 30.8301 54.7149C31.0576 54.5831 31.3158 54.5135 31.5788 54.5129H47.4246C47.6876 54.5135 47.9458 54.5831 48.1733 54.7149C48.4009 54.8466 48.5899 55.0358 48.7213 55.2635L51.57 60.1426C51.6854 60.3396 51.7543 60.5603 51.7715 60.788C51.7887 61.0156 51.7538 61.2441 51.6695 61.4563L47.9932 70.7772C47.9033 71.0051 47.759 71.2076 47.5729 71.3669C47.3868 71.5262 47.1645 71.6375 46.9255 71.6911C42.0472 72.8106 36.9787 72.8106 32.1004 71.6911C31.8632 71.6368 31.6427 71.5255 31.458 71.3669C31.2733 71.2084 31.1299 71.0073 31.0402 70.781Z" fill="#3E0505"/>
</g>
<defs>
<clipPath id="clip0_3328_3028">
<rect width="79" height="79" fill="white"/>
</clipPath>
</defs>
</svg>
