<svg width="45" height="45" viewBox="0 0 45 45" fill="none" xmlns="http://www.w3.org/2000/svg">
<path d="M39.3749 20.6249C38.8776 20.6249 38.4007 20.8224 38.049 21.174C37.6974 21.5257 37.4999 22.0026 37.4999 22.4999V27.3561L25.7061 15.5436C25.5318 15.3679 25.3244 15.2284 25.0959 15.1332C24.8675 15.038 24.6224 14.989 24.3749 14.989C24.1273 14.989 23.8823 15.038 23.6538 15.1332C23.4253 15.2284 23.2179 15.3679 23.0436 15.5436L16.8749 21.7311L6.95611 11.7936C6.60304 11.4405 6.12417 11.2422 5.62486 11.2422C5.12554 11.2422 4.64668 11.4405 4.29361 11.7936C3.94054 12.1467 3.74219 12.6255 3.74219 13.1249C3.74219 13.6242 3.94054 14.103 4.29361 14.4561L15.5436 25.7061C15.7179 25.8819 15.9253 26.0213 16.1538 26.1165C16.3823 26.2117 16.6273 26.2607 16.8749 26.2607C17.1224 26.2607 17.3675 26.2117 17.5959 26.1165C17.8244 26.0213 18.0318 25.8819 18.2061 25.7061L24.3749 19.5186L34.8561 29.9999H29.9999C29.5026 29.9999 29.0257 30.1974 28.674 30.549C28.3224 30.9007 28.1249 31.3776 28.1249 31.8749C28.1249 32.3721 28.3224 32.8491 28.674 33.2007C29.0257 33.5523 29.5026 33.7499 29.9999 33.7499H39.3749C39.6199 33.7469 39.8619 33.6959 40.0874 33.5999C40.5455 33.4096 40.9096 33.0455 41.0999 32.5874C41.1959 32.3619 41.2469 32.1199 41.2499 31.8749V22.4999C41.2499 22.0026 41.0523 21.5257 40.7007 21.174C40.3491 20.8224 39.8721 20.6249 39.3749 20.6249Z" fill="#E4E0D2"/>
</svg>
