<svg width="75" height="75" viewBox="0 0 75 75" fill="none" xmlns="http://www.w3.org/2000/svg">
<path d="M37.5 45C31.5326 45 25.8097 42.6295 21.5901 38.4099C17.3705 34.1903 15 28.4674 15 22.5C15 16.5326 17.3705 10.8097 21.5901 6.5901C25.8097 2.37053 31.5326 0 37.5 0C43.4674 0 49.1903 2.37053 53.4099 6.5901C57.6295 10.8097 60 16.5326 60 22.5C60 28.4674 57.6295 34.1903 53.4099 38.4099C49.1903 42.6295 43.4674 45 37.5 45ZM37.5 33.75C40.4837 33.75 43.3452 32.5647 45.455 30.455C47.5647 28.3452 48.75 25.4837 48.75 22.5C48.75 19.5163 47.5647 16.6548 45.455 14.545C43.3452 12.4353 40.4837 11.25 37.5 11.25C34.5163 11.25 31.6548 12.4353 29.545 14.545C27.4353 16.6548 26.25 19.5163 26.25 22.5C26.25 25.4837 27.4353 28.3452 29.545 30.455C31.6548 32.5647 34.5163 33.75 37.5 33.75ZM52.5 44.0625V75L37.5 60L22.5 75V44.0625C26.8955 47.1427 32.1327 48.7951 37.5 48.7951C42.8673 48.7951 48.1045 47.1427 52.5 44.0625Z" fill="#E4E0D2"/>
</svg>
